<?xml version="1.0" standalone="no"?>
<!DOCTYPE svg PUBLIC "-//W3C//DTD SVG 20010904//EN"
 "http://www.w3.org/TR/2001/REC-SVG-20010904/DTD/svg10.dtd">
<svg version="1.0" xmlns="http://www.w3.org/2000/svg"
 width="600.000000pt" height="584.000000pt" viewBox="0 0 600.000000 584.000000"
 preserveAspectRatio="xMidYMid meet">
<g transform="translate(0.000000,584.000000) scale(0.100000,-0.100000)"
fill="#000000" stroke="none">
<!-- White circular background matching the outer circle -->
<circle cx="3000" cy="2920" r="2750" fill="#FFFFFF"/>
<path d="M2665 5529 c-429 -53 -822 -198 -1155 -427 -290 -199 -534 -446 -726
-733 -283 -426 -434 -926 -434 -1444 0 -592 200 -1155 577 -1625 59 -73 251
-268 334 -339 280 -239 593 -409 972 -531 60 -19 242 -59 347 -76 130 -21 535
-30 670 -15 749 85 1434 489 1876 1106 197 274 352 632 414 953 11 59 25 130
30 157 19 96 31 321 25 460 -6 139 -35 382 -54 453 -6 20 -19 73 -30 117 -88
346 -262 690 -497 983 -85 106 -264 288 -374 378 -179 149 -439 308 -625 385
-55 23 -113 47 -130 54 -63 27 -287 89 -415 115 -183 37 -613 52 -805 29z
m544 -14 c5 -2 51 -9 102 -15 98 -11 173 -24 249 -43 25 -6 47 -12 50 -12 3 0
11 -4 18 -9 7 -4 19 -5 27 -2 8 3 15 1 15 -5 0 -6 4 -8 10 -4 5 3 17 1 27 -4
10 -5 65 -24 123 -42 58 -18 108 -37 112 -43 3 -5 14 -11 24 -12 16 -3 42 -14
117 -50 16 -8 34 -14 40 -14 13 0 86 -49 105 -70 12 -13 13 -13 6 0 -7 13 -6
13 10 0 10 -8 25 -15 34 -17 9 -1 18 -7 20 -12 2 -6 9 -11 16 -11 7 0 21 -9
31 -20 10 -11 22 -17 26 -14 5 3 12 -2 15 -10 3 -9 11 -16 18 -16 6 0 25 -12
41 -27 16 -16 30 -26 31 -23 2 3 13 -4 26 -15 13 -11 40 -31 61 -44 20 -12 37
-26 37 -30 0 -4 11 -14 25 -21 13 -7 22 -17 19 -22 -3 -4 1 -8 8 -8 7 0 28
-16 48 -35 201 -197 205 -201 296 -310 41 -49 43 -53 37 -59 -4 -3 -1 -6 5 -6
12 0 122 -152 122 -169 0 -6 5 -11 12 -11 6 0 8 -3 5 -6 -4 -4 3 -15 14 -25
11 -10 22 -24 23 -32 1 -8 7 -21 12 -28 6 -8 19 -30 29 -49 82 -161 99 -196
97 -202 -1 -5 3 -8 9 -8 6 0 9 -9 6 -20 -3 -11 -1 -18 3 -15 5 3 12 -9 15 -27
4 -18 14 -45 21 -60 8 -15 15 -39 16 -53 1 -14 5 -25 9 -25 4 0 10 -17 14 -37
4 -21 13 -49 20 -63 7 -14 15 -39 18 -55 3 -17 10 -42 15 -57 6 -14 11 -35 10
-45 0 -10 7 -45 16 -78 19 -74 38 -234 29 -248 -3 -6 -1 -7 5 -3 12 7 11 -419
-1 -557 -5 -56 -39 -231 -64 -327 -3 -14 -6 -28 -5 -31 2 -10 -33 -108 -41
-116 -4 -3 -7 -17 -7 -29 0 -13 -6 -38 -14 -56 -57 -132 -70 -157 -77 -152 -5
3 -6 -1 -4 -9 6 -15 -19 -82 -35 -92 -6 -4 -8 -11 -5 -16 4 -5 0 -18 -8 -30
-8 -11 -17 -17 -19 -12 -3 4 -3 2 -1 -5 2 -8 -7 -28 -19 -45 -13 -18 -23 -34
-23 -37 0 -3 -11 -23 -25 -45 -13 -22 -27 -44 -30 -50 -10 -19 -45 -70 -57
-82 -6 -7 -26 -35 -44 -63 -18 -27 -36 -50 -40 -50 -4 0 -11 -9 -14 -20 -3
-11 -13 -20 -21 -20 -8 0 -13 -4 -9 -9 3 -6 -3 -14 -12 -20 -10 -6 -15 -11
-10 -11 4 0 -10 -19 -30 -41 -72 -79 -203 -212 -203 -206 0 3 -18 -13 -39 -35
-22 -22 -45 -37 -50 -33 -7 4 -8 -1 -4 -12 3 -10 3 -15 -1 -11 -5 4 -18 -4
-31 -17 -12 -14 -25 -22 -28 -18 -4 3 -7 2 -7 -4 0 -6 -27 -29 -60 -52 -33
-23 -66 -48 -74 -56 -8 -8 -19 -15 -25 -15 -6 0 -20 -10 -32 -22 -12 -13 -18
-16 -14 -8 8 15 -32 -15 -46 -33 -3 -5 -9 -8 -13 -8 -20 3 -26 0 -20 -11 4 -7
3 -8 -5 -4 -7 4 -26 -3 -44 -16 -18 -14 -74 -46 -126 -71 -72 -35 -98 -44
-112 -37 -26 15 -36 12 -15 -3 17 -13 14 -15 -30 -31 -27 -9 -53 -18 -59 -20
-5 -2 -32 -13 -58 -24 -27 -12 -87 -33 -133 -46 -46 -14 -88 -28 -94 -31 -5
-3 -10 0 -10 7 0 10 -2 10 -8 1 -7 -12 -28 -18 -107 -32 -23 -4 -45 -10 -51
-14 -6 -3 -42 -8 -80 -11 -38 -3 -91 -10 -119 -15 -60 -12 -424 -12 -515 -1
-36 5 -99 11 -140 15 -41 4 -79 10 -85 15 -5 4 -44 12 -86 19 -41 7 -98 19
-125 27 -62 19 -82 25 -116 31 -16 3 -25 10 -21 16 3 5 2 7 -3 4 -9 -5 -77 15
-144 45 -19 8 -52 21 -72 28 -20 8 -34 18 -31 23 3 6 1 7 -4 4 -13 -8 -202 88
-218 110 -7 9 -17 13 -23 9 -7 -4 -12 -2 -12 3 0 6 -6 11 -13 11 -7 0 -22 8
-33 18 -10 9 -30 22 -44 29 -45 20 -120 79 -113 88 5 4 3 5 -4 1 -14 -8 -55
28 -45 40 4 4 1 4 -6 0 -7 -5 -26 4 -46 21 -19 15 -55 46 -82 68 -77 65 -303
295 -289 295 3 0 -9 14 -27 30 -18 16 -29 30 -25 30 5 0 -3 10 -16 23 -13 12
-22 29 -19 37 3 8 1 12 -3 8 -10 -10 -45 35 -45 58 0 9 -3 14 -6 11 -8 -7 -90
113 -86 125 1 5 -3 8 -9 8 -6 0 -8 7 -5 16 3 8 2 12 -4 9 -6 -3 -10 -1 -10 5
0 6 -7 18 -15 27 -8 8 -13 19 -10 24 4 5 2 9 -3 9 -5 0 -12 8 -15 18 -4 9 -22
46 -41 81 -20 35 -33 67 -30 72 3 5 1 9 -3 9 -7 0 -27 39 -38 73 -1 4 -4 10
-5 15 -1 4 -2 11 -1 16 1 5 -5 16 -12 25 -21 24 -59 139 -51 152 4 7 3 9 -3 6
-7 -4 -14 9 -19 31 -9 43 -11 51 -14 55 -1 1 -3 11 -5 22 -2 11 -13 65 -25
120 -12 55 -29 150 -37 210 -19 130 -27 493 -13 550 6 22 12 70 13 107 2 39
10 74 18 84 12 15 12 17 0 9 -11 -6 -13 -4 -6 11 4 10 13 48 20 84 6 36 22
101 35 145 13 44 24 87 25 95 1 17 41 124 56 153 5 10 7 22 4 27 -4 6 -2 10 2
10 5 0 15 17 23 38 7 20 20 43 29 50 9 8 10 11 4 7 -17 -8 -17 -7 14 56 15 30
26 57 25 62 -1 4 2 7 6 7 7 0 34 44 36 60 2 12 61 107 80 129 12 14 14 21 6
16 -8 -4 -5 2 8 14 12 12 22 25 22 30 0 4 9 17 20 29 11 12 20 23 19 24 -5 8
39 67 44 61 4 -3 7 0 7 8 0 12 99 138 158 202 127 135 306 295 324 290 4 -2 7
0 5 5 -1 4 0 8 3 8 3 1 22 18 44 39 25 23 44 34 55 30 8 -3 12 -3 8 1 -7 7 97
84 113 84 6 0 10 5 10 12 0 6 3 9 6 5 4 -3 21 5 39 18 17 14 35 22 38 18 4 -3
7 0 7 7 0 7 3 11 6 7 3 -3 16 3 27 14 12 11 33 23 47 26 14 3 27 9 30 12 11
13 108 61 124 61 9 0 16 3 16 8 0 4 12 8 26 9 15 0 30 7 35 15 5 7 9 10 9 5 0
-4 10 -1 23 7 12 8 27 16 32 17 6 1 16 4 23 7 7 2 16 2 19 -2 3 -3 11 1 17 8
6 8 40 21 76 29 36 9 98 25 138 36 41 12 96 23 123 26 27 2 52 6 57 8 6 5 36
9 167 23 28 3 77 9 110 14 62 7 390 4 404 -5z"/>
<path d="M2829 5476 c-2 -2 -51 -6 -109 -10 -97 -6 -155 -12 -155 -16 0 -1
-11 -3 -25 -5 -48 -7 -82 -14 -116 -25 -19 -7 -42 -9 -50 -6 -9 4 -12 2 -8 -5
5 -8 -3 -10 -24 -7 -17 2 -29 1 -26 -4 3 -4 -2 -8 -10 -8 -8 0 -35 -6 -58 -14
-24 -8 -76 -24 -115 -36 -40 -12 -76 -26 -79 -31 -3 -6 -12 -8 -20 -5 -8 3
-14 2 -14 -2 0 -5 -17 -14 -37 -21 -49 -17 -194 -89 -260 -128 -28 -17 -54
-29 -57 -26 -3 4 -6 1 -6 -5 0 -6 -9 -14 -20 -17 -11 -3 -26 -12 -32 -19 -30
-29 -136 -95 -143 -88 -5 4 -5 1 -1 -5 4 -7 3 -13 -3 -13 -5 0 -49 -33 -97
-74 -49 -41 -92 -72 -96 -70 -5 3 -7 2 -6 -3 4 -11 -160 -171 -169 -164 -3 3
-3 1 0 -5 3 -6 -12 -28 -33 -48 -22 -21 -40 -42 -40 -47 0 -6 -5 -7 -10 -4 -6
4 -9 3 -8 -2 3 -10 -91 -143 -102 -143 -3 0 -14 -15 -22 -34 -9 -18 -31 -50
-48 -70 -18 -20 -29 -36 -26 -36 8 0 -53 -100 -78 -128 -12 -13 -20 -27 -18
-30 4 -9 -26 -77 -53 -122 -12 -19 -30 -58 -40 -87 -10 -29 -23 -49 -28 -46
-6 3 -7 1 -3 -6 8 -13 -11 -81 -24 -81 -4 0 -11 -20 -14 -45 -4 -25 -11 -45
-15 -45 -9 0 -19 -38 -27 -104 -3 -22 -10 -49 -17 -60 -6 -12 -12 -32 -13 -46
-1 -14 -7 -45 -13 -70 -13 -49 -17 -75 -25 -160 -3 -30 -8 -68 -11 -85 -3 -16
-5 -127 -4 -245 3 -288 3 -290 13 -290 4 0 6 -15 4 -34 -2 -19 0 -32 4 -30 4
3 7 -15 7 -38 1 -24 7 -65 15 -93 7 -27 12 -61 9 -75 -2 -13 -1 -21 3 -17 4 4
16 -25 25 -65 10 -40 23 -80 27 -88 5 -9 13 -31 17 -50 4 -19 11 -41 16 -50 7
-13 19 -45 24 -60 1 -3 9 -22 18 -44 9 -21 14 -43 10 -49 -4 -6 -1 -7 6 -3 8
5 11 3 10 -5 -2 -8 7 -33 19 -55 11 -23 19 -44 17 -48 -3 -3 -2 -4 2 -1 7 6
33 -41 33 -62 0 -8 4 -12 9 -9 8 5 45 -71 42 -86 0 -5 4 -8 11 -8 6 0 9 -3 5
-6 -5 -5 10 -27 41 -60 7 -8 10 -14 6 -14 -4 0 5 -13 20 -29 15 -16 28 -33 27
-38 0 -9 17 -32 106 -144 34 -43 67 -87 73 -99 6 -11 15 -18 20 -15 5 3 11 -4
15 -15 3 -11 11 -20 16 -20 6 0 7 -5 3 -12 -4 -6 -3 -8 3 -5 11 7 56 -36 48
-46 -3 -4 -2 -5 1 -2 4 2 23 -12 43 -33 20 -21 51 -48 69 -61 19 -13 29 -27
26 -34 -4 -7 -4 -9 1 -5 9 9 35 -16 35 -34 0 -10 3 -9 10 2 9 14 15 6 10 -15
-1 -5 2 -7 6 -3 4 4 20 -4 36 -17 16 -14 34 -25 39 -25 6 0 8 -4 5 -8 -3 -5 9
-17 27 -27 18 -10 40 -27 50 -39 10 -12 16 -15 12 -8 -6 11 -3 11 14 0 12 -7
21 -16 21 -20 0 -5 7 -8 15 -8 9 0 18 -7 21 -15 4 -8 9 -13 14 -10 4 2 17 -5
28 -16 12 -11 22 -17 22 -14 0 3 20 -8 44 -25 25 -16 49 -30 55 -30 6 0 11 -4
11 -10 0 -5 3 -9 8 -8 12 3 85 -34 110 -55 12 -11 22 -17 22 -13 0 5 6 3 14
-3 8 -7 23 -13 34 -16 11 -2 40 -13 65 -24 25 -12 50 -21 55 -21 5 0 25 -6 43
-14 19 -8 37 -14 42 -15 4 0 21 -8 37 -16 17 -9 36 -15 43 -14 6 1 26 -3 42
-10 17 -7 39 -14 50 -16 11 -2 56 -11 100 -20 44 -9 96 -19 115 -21 19 -3 37
-9 40 -14 3 -5 23 -9 45 -9 22 -1 99 -5 170 -9 189 -13 488 -4 560 16 78 22
214 44 226 36 7 -4 10 -3 6 3 -4 6 0 14 9 17 10 4 13 2 8 -7 -6 -9 -5 -9 7 -1
13 11 153 58 174 59 6 0 13 4 17 9 3 5 14 10 25 11 29 2 62 15 147 56 44 21
83 36 87 34 4 -3 9 2 13 10 3 8 12 12 21 9 8 -4 15 -1 15 7 0 7 3 9 7 6 3 -4
18 3 31 15 14 13 22 18 18 11 -9 -16 48 13 64 32 7 8 16 15 21 15 4 0 25 11
45 25 20 14 41 22 48 18 6 -3 8 -3 4 2 -5 5 16 24 45 44 28 19 58 41 65 48 7
7 18 13 23 13 6 0 17 7 26 15 8 8 19 12 25 9 6 -4 8 -3 5 3 -3 5 5 18 19 28
28 21 44 35 122 103 89 78 103 92 96 92 -4 0 1 6 11 14 11 8 23 12 28 9 4 -2
7 -1 6 4 -4 20 2 33 15 33 7 0 16 9 19 20 3 11 14 23 25 27 20 8 22 11 22 33
0 6 8 10 17 10 9 0 14 3 10 6 -3 3 5 16 17 28 13 11 28 31 35 44 7 12 16 20
21 17 6 -4 7 1 3 11 -4 11 -2 15 4 11 6 -4 13 3 16 14 4 14 10 18 18 13 9 -5
10 -2 6 9 -4 10 -1 17 5 17 6 0 9 3 5 6 -3 3 2 15 11 26 9 11 25 29 34 40 10
11 20 29 23 39 4 11 10 17 15 14 4 -2 10 8 13 23 3 15 14 36 24 47 10 11 32
46 48 78 46 90 51 97 60 89 5 -4 5 -2 2 4 -7 12 30 114 45 124 4 3 9 15 11 25
2 11 7 27 10 35 27 61 69 189 69 207 0 14 4 20 12 16 6 -3 8 -3 5 1 -4 4 -3
21 1 39 40 157 50 202 50 226 0 16 6 46 14 67 18 51 20 121 16 404 -4 327 -4
329 -12 324 -4 -3 -10 12 -13 33 -3 21 -10 60 -15 86 -6 27 -10 62 -10 78 0
16 -4 29 -8 29 -6 0 -34 97 -37 130 0 3 -4 11 -9 19 -7 11 -6 12 5 6 10 -6 9
-3 -2 11 -9 10 -30 57 -47 104 -16 47 -42 111 -56 144 -14 32 -23 62 -20 67 3
5 1 9 -5 9 -5 0 -27 35 -49 78 -22 42 -49 93 -61 112 -12 19 -24 43 -27 53 -4
9 -10 17 -15 17 -5 0 -9 5 -9 11 0 11 -59 100 -74 110 -5 4 -5 13 -1 20 5 8 5
11 1 7 -9 -7 -37 24 -109 118 -26 34 -60 75 -76 90 -22 21 -27 31 -18 37 9 6
8 7 -2 5 -14 -4 -134 106 -128 118 1 3 -8 11 -19 17 -33 18 -104 86 -104 99 0
6 -3 8 -7 5 -4 -4 -19 4 -34 19 -15 14 -31 26 -36 26 -16 1 -43 25 -35 33 4 5
1 5 -5 1 -7 -4 -13 -3 -13 1 0 5 -15 17 -32 27 -18 10 -45 30 -60 44 -16 14
-28 23 -28 19 0 -7 -79 40 -90 54 -7 8 -44 22 -52 21 -5 -1 -8 1 -8 6 0 4 -17
16 -37 27 -21 11 -41 24 -44 28 -3 5 -10 8 -15 7 -11 -1 -87 32 -94 41 -3 3
-17 9 -32 12 -15 4 -33 14 -41 22 -8 8 -17 11 -21 8 -3 -3 -11 -1 -18 4 -7 5
-34 16 -61 23 -26 7 -50 17 -53 21 -3 5 -17 9 -31 9 -14 0 -39 6 -56 14 -36
15 -104 35 -145 41 -15 3 -54 11 -87 19 -66 16 -109 22 -265 36 -103 9 -363
14 -371 6z m346 -26 c321 -27 614 -108 910 -255 604 -298 1060 -815 1283
-1455 46 -133 82 -278 109 -435 14 -89 18 -164 18 -385 0 -244 -3 -289 -24
-400 -95 -517 -287 -901 -649 -1299 -64 -70 -159 -157 -303 -276 -123 -102
-524 -325 -654 -365 -22 -7 -53 -18 -70 -25 -99 -43 -353 -103 -510 -120 -230
-26 -674 -12 -775 24 -14 5 -54 15 -89 21 -138 25 -410 119 -548 188 -151 77
-392 228 -458 289 -11 10 -43 36 -70 58 -28 22 -97 85 -154 140 -387 375 -643
874 -728 1421 -25 166 -25 561 1 719 57 354 176 670 361 966 89 142 139 210
245 329 396 449 921 742 1495 836 202 32 407 41 610 24z"/>
<path d="M2680 4889 c-163 -24 -229 -41 -380 -96 -480 -177 -886 -541 -1107
-993 -31 -63 -60 -124 -65 -135 -59 -146 -98 -296 -124 -478 -25 -176 -16
-457 20 -632 95 -459 334 -852 697 -1147 127 -103 208 -156 347 -227 275 -140
519 -204 832 -218 853 -38 1656 509 1949 1327 171 479 137 1037 -90 1497 -164
331 -407 605 -714 805 -187 122 -448 233 -637 272 -238 49 -506 58 -728 25z
m540 -14 c19 -2 46 -6 60 -9 14 -4 50 -11 81 -16 32 -4 65 -12 75 -18 11 -5
25 -7 33 -4 8 2 11 0 7 -6 -4 -6 1 -8 13 -5 10 3 29 -1 42 -8 13 -7 37 -16 54
-20 68 -17 226 -86 233 -101 2 -5 11 -8 19 -8 25 0 152 -73 146 -83 -3 -6 -1
-7 4 -4 16 10 95 -51 86 -66 -5 -8 -2 -8 9 1 9 7 18 9 20 5 1 -5 27 -26 56
-47 28 -21 52 -42 52 -47 0 -5 6 -9 13 -9 17 0 188 -170 181 -181 -3 -5 1 -7
8 -4 17 5 104 -103 100 -124 -2 -9 -1 -13 3 -9 9 9 20 -3 68 -70 21 -30 36
-56 33 -60 -3 -3 2 -11 12 -18 9 -6 28 -32 40 -55 13 -24 34 -62 48 -84 13
-22 29 -52 35 -67 6 -15 19 -43 29 -62 10 -20 13 -33 6 -29 -8 5 -8 3 0 -8 15
-20 74 -173 74 -192 0 -10 4 -25 9 -35 10 -18 33 -130 52 -257 12 -78 16 -365
5 -455 -2 -25 -12 -81 -21 -125 -9 -44 -18 -89 -20 -100 -10 -56 -19 -88 -49
-177 -18 -54 -36 -95 -41 -91 -4 5 -6 3 -2 -2 8 -15 -48 -127 -58 -118 -4 5
-6 3 -2 -2 8 -14 -21 -78 -32 -71 -5 3 -7 -3 -4 -14 3 -10 -1 -26 -8 -34 -29
-32 -39 -46 -40 -53 -2 -19 -46 -82 -53 -76 -4 4 -4 0 -1 -9 4 -9 0 -18 -9
-21 -9 -4 -16 -12 -16 -19 0 -7 -15 -25 -32 -41 -18 -16 -26 -26 -18 -21 8 4
2 -7 -14 -26 -16 -19 -33 -34 -38 -32 -4 1 -8 -4 -8 -12 0 -8 -9 -17 -19 -21
-12 -4 -18 -12 -14 -21 3 -8 -1 -14 -8 -14 -8 -1 -23 -15 -34 -32 -27 -43 -50
-50 -41 -13 5 19 3 25 -5 20 -6 -4 -9 -19 -5 -35 4 -24 -1 -33 -28 -54 -19
-14 -37 -22 -41 -18 -5 4 -6 3 -3 -3 3 -5 0 -16 -8 -23 -8 -7 -14 -10 -14 -6
0 4 -11 -6 -25 -22 -17 -19 -25 -24 -26 -14 0 8 -4 4 -10 -8 -5 -13 -18 -26
-29 -29 -11 -3 -17 -9 -14 -14 3 -5 0 -9 -7 -9 -7 0 -22 -9 -33 -19 -38 -35
-187 -121 -198 -115 -6 4 -8 3 -5 -3 7 -11 -3 -16 -108 -63 -38 -17 -78 -35
-87 -40 -10 -6 -23 -10 -30 -10 -7 0 -26 -7 -41 -15 -15 -8 -25 -10 -22 -5 4
6 2 10 -4 10 -5 0 -14 -6 -18 -13 -7 -11 -87 -37 -133 -42 -8 -1 -27 -7 -42
-13 -14 -6 -43 -13 -65 -16 -21 -2 -47 -6 -58 -9 -78 -18 -387 -29 -450 -17
-22 5 -78 11 -125 14 -47 4 -110 13 -140 21 -30 8 -65 15 -78 15 -13 0 -20 4
-17 10 3 6 -1 7 -10 4 -14 -6 -95 18 -170 50 -16 8 -54 22 -82 32 -29 10 -53
22 -53 26 0 4 -5 8 -12 8 -21 0 -98 42 -93 50 3 4 -4 6 -15 3 -12 -3 -20 0
-20 6 0 7 -5 9 -10 6 -6 -3 -10 -2 -10 2 0 5 -18 17 -40 27 -22 10 -40 22 -40
26 0 5 -14 17 -31 26 -43 22 -144 97 -147 109 -2 6 -13 14 -25 18 -18 7 -19
10 -7 18 12 8 11 9 -6 5 -15 -5 -37 10 -94 64 -41 38 -71 70 -68 70 3 0 -19
25 -49 56 -31 32 -52 61 -49 69 3 10 0 12 -11 8 -11 -4 -14 -2 -9 5 4 7 2 12
-3 12 -6 0 -11 7 -11 15 0 7 -7 18 -16 23 -9 5 -25 25 -37 44 -12 19 -40 61
-61 93 -34 51 -92 159 -110 205 -3 8 -10 22 -15 30 -15 26 -53 127 -56 150 0
3 -4 11 -8 17 -5 7 -10 21 -12 30 -2 10 -12 54 -23 98 -40 160 -66 335 -50
335 4 0 8 5 8 11 0 5 -4 7 -10 4 -6 -4 -8 50 -5 152 2 87 4 177 4 201 0 23 4
42 8 42 4 0 9 21 11 47 1 26 7 52 11 56 5 5 7 16 4 24 -3 7 2 33 10 56 9 23
18 58 22 77 11 59 37 134 53 153 12 14 13 17 1 17 -11 1 -10 4 3 14 9 7 19 24
22 38 5 28 62 146 81 168 8 8 14 18 14 23 0 14 35 67 44 67 4 0 5 5 2 10 -3 6
2 18 11 28 10 9 30 36 44 59 15 23 31 39 35 35 5 -4 5 -2 2 5 -7 12 27 59 77
106 16 15 26 27 21 27 -9 0 184 191 244 240 23 19 56 43 73 52 17 10 34 21 37
25 11 14 175 120 213 138 20 9 43 13 50 9 7 -4 10 -3 5 1 -9 11 57 48 136 76
34 12 67 26 73 31 7 5 16 8 20 7 5 -1 23 4 39 11 38 16 228 60 236 54 4 -2 26
3 49 11 50 18 53 18 45 6 -3 -6 9 -5 30 0 19 6 39 8 43 5 5 -3 22 -1 38 4 24
7 258 4 394 -5z"/>
<path d="M2780 4839 c-175 -26 -182 -27 -220 -38 -19 -5 -48 -12 -65 -15 -16
-3 -51 -12 -77 -20 -27 -8 -48 -12 -48 -9 0 3 -7 0 -15 -7 -8 -6 -20 -8 -26
-4 -8 4 -9 3 -5 -4 6 -11 -64 -38 -92 -35 -7 0 -11 -1 -8 -5 9 -9 -94 -53
-107 -46 -6 4 -9 4 -5 -1 9 -10 -53 -45 -67 -37 -5 3 -7 1 -2 -3 9 -11 -92
-67 -107 -58 -6 3 -8 3 -4 -2 4 -4 -23 -30 -60 -58 -37 -27 -68 -54 -70 -58
-2 -5 -8 -9 -13 -9 -6 0 -7 5 -3 12 4 7 3 8 -5 4 -6 -4 -9 -11 -6 -16 3 -5 -5
-14 -17 -21 -13 -7 -29 -21 -36 -31 -7 -10 -18 -15 -24 -12 -7 5 -8 2 -4 -5 5
-8 0 -14 -13 -18 -12 -3 -21 -9 -21 -12 0 -4 -32 -41 -72 -82 -39 -41 -68 -68
-63 -60 6 10 4 12 -4 7 -7 -5 -10 -10 -7 -13 3 -3 -4 -17 -15 -32 -12 -14 -23
-24 -25 -21 -2 3 -13 -13 -24 -35 -11 -22 -33 -54 -50 -72 -16 -18 -30 -36
-30 -42 0 -5 -10 -22 -22 -38 -13 -15 -32 -46 -43 -68 -11 -22 -29 -56 -41
-75 -11 -19 -29 -56 -39 -82 -10 -26 -21 -45 -26 -42 -5 3 -6 -1 -3 -9 3 -8 1
-18 -5 -21 -6 -4 -8 -13 -4 -21 3 -8 0 -15 -6 -15 -5 0 -16 -19 -23 -42 -7
-24 -19 -49 -28 -56 -9 -8 -9 -11 -1 -6 9 5 12 1 8 -12 -4 -11 -13 -50 -22
-89 -9 -38 -20 -84 -26 -102 -40 -127 -49 -430 -19 -633 6 -41 12 -85 12 -97
0 -13 5 -20 11 -16 7 4 8 -9 4 -37 -4 -30 -3 -39 4 -29 8 11 9 10 7 -7 -2 -12
2 -32 8 -45 26 -57 63 -182 57 -192 -3 -6 -1 -7 5 -3 8 5 12 -1 12 -18 0 -13
3 -26 8 -28 4 -1 31 -52 61 -113 30 -60 58 -111 62 -113 4 -2 5 -11 2 -20 -3
-9 -3 -14 2 -10 12 11 55 -60 49 -79 -5 -14 -4 -15 4 -4 7 10 12 6 23 -17 7
-17 16 -29 20 -27 3 3 12 -7 19 -20 7 -14 17 -25 22 -25 5 0 6 -10 3 -22 -4
-16 -3 -19 3 -9 7 9 12 10 16 2 4 -6 5 -11 2 -11 -3 0 17 -21 44 -47 27 -26
47 -50 45 -54 -3 -4 4 -9 15 -12 13 -3 18 -11 14 -20 -3 -8 -1 -18 5 -22 7 -4
8 1 4 12 -5 13 0 12 19 -7 45 -45 112 -105 158 -140 25 -19 49 -40 53 -47 4
-7 14 -13 21 -13 7 0 21 -8 32 -17 29 -26 53 -41 106 -66 29 -13 46 -27 43
-35 -3 -7 1 -12 8 -10 6 2 37 -9 67 -24 81 -40 151 -68 166 -68 8 0 14 -4 14
-8 0 -7 55 -29 82 -32 4 -1 38 -10 75 -21 38 -11 77 -22 88 -23 11 -2 56 -10
100 -19 44 -9 103 -19 130 -23 72 -11 356 -7 455 6 116 15 114 15 126 23 7 4
28 9 48 11 19 3 44 10 55 15 11 6 37 14 58 17 21 3 42 10 47 15 6 5 16 9 24 9
8 0 28 6 45 14 86 39 159 66 179 66 19 0 20 -2 8 -10 -8 -5 -10 -10 -4 -10 18
0 24 13 13 27 -9 10 -7 13 9 13 11 0 23 7 26 16 3 8 10 12 16 9 5 -3 10 -2 10
4 0 5 10 13 22 17 12 3 31 15 42 25 11 11 26 19 33 19 7 0 13 5 13 11 0 5 5 7
10 4 6 -3 13 1 16 9 3 9 10 13 15 10 5 -3 9 0 9 7 0 7 3 9 7 6 3 -4 13 2 20
13 8 11 29 27 46 36 18 9 52 36 77 60 25 24 48 43 53 44 4 0 6 2 5 5 -4 7 46
40 55 37 5 -1 6 2 2 7 -7 12 52 57 68 53 6 -2 4 5 -4 14 -12 16 -12 17 5 11
13 -5 17 -3 13 7 -3 8 8 27 26 44 36 35 43 43 77 92 14 19 30 39 36 45 17 16
100 147 120 187 9 20 22 34 27 31 6 -3 7 -1 4 5 -4 5 9 43 28 83 19 41 35 79
35 87 0 7 4 11 8 8 4 -2 9 7 10 21 1 13 8 37 16 51 15 28 31 81 28 95 -1 4 2
7 6 7 5 0 9 6 10 13 5 54 16 104 26 112 6 6 12 35 13 67 1 31 7 74 13 96 12
47 13 358 1 452 -4 36 -6 71 -4 78 3 6 0 12 -5 12 -11 0 -12 8 -14 67 -1 18
-5 30 -9 27 -5 -3 -9 8 -9 24 0 16 -7 49 -15 72 -8 24 -12 53 -9 64 4 12 3 18
-2 13 -4 -4 -16 14 -26 40 -13 35 -15 50 -6 60 8 11 7 12 -6 7 -10 -4 -16 -1
-16 8 0 8 -11 37 -25 64 -25 50 -34 82 -14 54 9 -13 10 -13 6 0 -2 8 -10 15
-18 15 -8 0 -14 9 -14 20 1 11 -2 22 -5 25 -24 22 -61 91 -54 102 4 7 4 10 -1
6 -4 -4 -18 7 -30 25 -16 22 -19 34 -11 39 7 5 5 8 -5 8 -19 0 -49 41 -49 65
0 9 -4 14 -9 11 -5 -3 -17 7 -28 23 -25 39 -91 117 -130 154 -18 16 -30 34
-26 40 3 6 2 7 -4 4 -5 -4 -24 10 -41 29 -18 20 -32 33 -32 30 0 -4 -15 8 -34
26 -18 18 -31 37 -28 42 3 5 0 6 -5 3 -6 -4 -21 3 -35 16 -13 12 -37 31 -52
42 -16 11 -34 25 -41 32 -7 7 -15 9 -19 6 -3 -3 -8 2 -12 11 -3 9 -13 16 -21
16 -8 0 -11 5 -7 12 4 6 3 8 -4 4 -6 -3 -16 0 -24 7 -7 7 -28 19 -45 26 -18 7
-33 17 -33 22 0 5 -6 9 -13 9 -7 0 -22 8 -33 18 -11 10 -26 16 -33 14 -9 -3
-11 0 -6 9 5 8 5 11 1 7 -5 -4 -42 9 -83 28 -42 19 -79 34 -83 34 -4 0 -23 6
-41 14 -19 8 -37 15 -41 15 -4 1 -27 9 -50 17 -24 8 -61 17 -83 20 -21 3 -42
8 -45 13 -3 4 -12 9 -20 9 -8 1 -42 7 -75 13 -33 7 -70 12 -82 12 -13 -1 -21
2 -19 6 4 6 -70 11 -224 15 -47 1 -137 -6 -200 -15z m390 -25 c381 -43 716
-184 995 -418 405 -340 647 -786 696 -1284 59 -597 -185 -1195 -648 -1595
-101 -87 -196 -157 -212 -157 -5 0 -11 -4 -13 -8 -14 -33 -263 -151 -446 -212
-213 -70 -304 -84 -562 -85 -243 0 -346 13 -536 71 -243 73 -427 169 -629 325
-241 186 -426 412 -549 671 -111 231 -164 425 -186 672 -15 172 5 425 45 571
48 174 69 232 132 365 272 575 826 988 1442 1075 206 29 289 30 471 9z"/>
<path d="M3402 4628 c-17 -17 -15 -24 10 -48 14 -13 19 -24 12 -28 -6 -4 -34
-46 -62 -94 -52 -86 -53 -87 -82 -77 -43 15 -88 -10 -130 -74 -64 -98 -233
-362 -273 -427 -21 -36 -41 -67 -43 -69 -1 -1 -13 4 -26 13 -27 19 -67 20 -89
3 -27 -21 -69 -88 -69 -112 0 -12 10 -35 22 -50 l22 -28 -62 -58 c-34 -33 -62
-65 -62 -73 0 -23 91 -126 117 -132 32 -9 55 5 132 76 65 61 75 66 100 51 14
-9 10 -42 -15 -119 -19 -58 -21 -120 -3 -137 19 -19 134 -48 159 -40 27 9 47
51 56 114 6 43 10 51 23 45 9 -4 33 -9 54 -12 46 -5 71 14 98 74 22 49 15 84
-23 113 l-26 21 34 52 c19 28 38 57 42 65 7 11 17 9 53 -11 24 -13 65 -27 91
-31 40 -6 55 -16 107 -69 115 -115 172 -231 191 -387 11 -84 10 -106 -5 -175
-21 -94 -42 -144 -90 -220 -80 -124 -99 -138 -409 -288 l-285 -139 -68 33
c-37 18 -195 93 -351 166 -155 74 -290 139 -300 144 -49 28 -206 96 -272 118
-73 25 -82 26 -406 30 l-332 3 -4 -35 c-2 -21 0 -36 7 -37 5 0 42 0 80 1 l70
1 50 -98 c27 -54 91 -177 141 -273 50 -96 129 -249 175 -340 54 -105 98 -179
124 -205 22 -22 109 -94 193 -160 85 -66 166 -130 180 -142 15 -11 86 -67 157
-123 72 -56 157 -123 190 -150 180 -145 263 -208 285 -215 14 -4 -20 29 -75
74 -55 44 -107 87 -115 93 -8 7 -29 23 -46 34 -18 12 -45 33 -60 47 -64 57
-89 77 -96 77 -4 0 -18 11 -31 23 -12 13 -35 32 -50 42 -15 9 -24 21 -21 26 3
5 -3 6 -12 2 -12 -4 -15 -3 -10 5 4 7 2 12 -6 12 -7 0 -24 9 -38 20 -172 135
-170 134 -170 150 0 6 -4 9 -9 6 -5 -3 -27 9 -49 26 -23 18 -59 46 -81 62 -23
17 -41 33 -41 38 0 4 -6 8 -14 8 -21 0 -105 97 -129 149 -11 25 -31 63 -44 84
-13 21 -21 43 -17 50 4 7 4 9 -1 5 -9 -8 -35 36 -35 58 0 8 -4 14 -8 14 -9 0
-55 97 -55 116 0 7 -4 11 -8 8 -9 -5 -129 238 -129 263 0 13 -3 14 -8 6 -5 -9
-13 0 -22 25 -8 20 -14 41 -15 45 0 4 -5 11 -11 15 -6 4 -23 32 -37 64 -14 31
-32 60 -39 65 -7 4 -41 8 -75 9 -65 0 -80 5 -68 23 7 12 607 9 665 -3 19 -5
53 -17 74 -27 22 -10 46 -19 53 -19 8 0 11 -5 7 -12 -4 -6 -3 -8 4 -4 6 3 28
-2 49 -12 21 -10 61 -29 90 -43 28 -13 49 -27 47 -31 -3 -4 2 -5 10 -2 9 3 16
1 16 -6 0 -6 4 -9 9 -5 5 3 12 1 16 -5 3 -5 13 -10 22 -10 8 0 27 -9 41 -19
15 -10 30 -19 34 -20 8 -1 99 -43 273 -126 50 -23 107 -50 127 -60 21 -9 35
-22 31 -28 -3 -6 -1 -7 6 -3 7 4 33 -3 59 -15 26 -13 56 -24 66 -25 18 -1 81
24 116 46 8 6 83 42 165 80 83 39 167 79 188 90 22 11 45 20 52 20 7 0 18 7
25 15 7 9 19 14 27 11 8 -3 11 -2 8 3 -7 12 47 53 108 81 26 13 59 37 72 55
63 82 115 250 115 370 0 182 -97 403 -224 509 l-46 38 31 25 c35 30 69 92 69
128 0 39 -15 30 -27 -17 -7 -24 -27 -61 -47 -84 -19 -23 -34 -50 -33 -62 0
-12 3 -20 5 -18 7 8 110 -107 128 -143 10 -22 23 -37 29 -33 5 3 7 2 3 -3 -4
-4 1 -20 11 -34 24 -34 42 -91 34 -104 -3 -6 -1 -7 5 -3 11 7 16 -12 16 -66 0
-9 4 -14 9 -11 6 4 7 -5 3 -23 -5 -21 -4 -25 3 -14 7 11 10 -10 10 -70 0 -47
-5 -90 -10 -96 -5 -7 -9 -16 -8 -20 1 -5 0 -12 -1 -16 -4 -13 -6 -21 -14 -72
-5 -35 -10 -45 -17 -35 -6 10 -9 6 -9 -14 0 -33 -35 -106 -55 -113 -7 -3 -12
-11 -9 -18 3 -7 -7 -18 -21 -24 -31 -14 -32 -2 -2 35 13 15 32 47 42 71 11 23
22 42 27 42 4 0 8 9 8 20 0 12 7 35 16 51 8 17 13 37 11 44 -3 7 -1 17 4 22
12 12 13 186 1 210 -5 10 -12 37 -16 61 -10 68 -68 178 -129 248 -18 19 -32
40 -32 45 0 5 -4 9 -10 10 -18 1 -35 21 -28 32 3 6 1 7 -5 3 -7 -4 -12 -3 -12
2 0 12 -75 44 -110 47 -14 1 -43 12 -64 24 -33 19 -43 21 -62 11 -12 -7 -27
-23 -33 -37 -7 -14 -16 -21 -23 -17 -7 5 -9 2 -6 -7 3 -9 -2 -26 -12 -39 -21
-28 -17 -43 22 -88 27 -32 27 -34 13 -68 -16 -39 -51 -73 -75 -74 -29 0 -60
12 -54 22 4 6 -5 3 -18 -6 -26 -17 -38 -13 -38 13 0 17 -70 71 -92 71 -7 0
-21 -9 -31 -20 -9 -11 -13 -20 -8 -20 5 0 3 -21 -5 -47 -20 -68 -16 -117 10
-121 84 -11 88 -9 106 66 13 49 32 57 26 9 -8 -59 -18 -87 -29 -80 -6 4 -8 0
-5 -9 5 -12 -2 -15 -34 -15 -22 0 -56 6 -77 13 -31 10 -36 17 -38 46 -1 30 15
113 36 179 6 20 4 29 -13 42 -32 26 -58 20 -106 -23 -79 -71 -115 -100 -127
-100 -16 0 -64 45 -56 53 11 11 35 8 28 -3 -4 -7 6 -10 29 -8 20 1 36 6 36 11
0 5 7 6 16 3 9 -3 12 -2 9 5 -9 14 25 50 39 42 6 -3 8 -3 4 1 -4 5 4 18 18 31
32 30 31 38 -13 73 -30 24 -43 28 -61 21 -13 -5 -29 -6 -34 -2 -7 4 -8 1 -3
-6 4 -8 -10 -28 -39 -56 -50 -46 -54 -56 -31 -75 12 -10 13 -16 4 -24 -8 -8
-13 -8 -16 2 -3 6 -9 10 -14 7 -5 -4 -6 2 -2 11 4 11 3 15 -5 10 -6 -3 -13 -2
-17 4 -3 5 -2 10 4 10 6 0 8 6 6 13 -3 6 7 21 22 32 15 11 42 35 60 53 26 27
31 37 23 52 -6 10 -15 22 -20 25 -6 3 -10 22 -10 41 0 24 4 33 12 28 7 -4 8
-3 4 5 -4 6 -1 18 6 26 7 8 19 21 26 30 13 16 37 15 84 -4 25 -9 30 -7 59 30
23 30 34 37 40 27 5 -8 2 -16 -6 -21 -8 -4 -15 -15 -15 -23 0 -8 -4 -13 -9
-10 -4 3 -6 -6 -3 -19 5 -27 62 -78 100 -89 12 -4 22 -12 22 -17 0 -5 6 -9 13
-9 6 0 21 -7 32 -16 17 -13 18 -16 5 -25 -12 -8 -10 -9 7 -4 21 6 83 -20 91
-37 6 -13 46 -8 66 7 11 8 17 15 13 15 -4 0 7 23 24 50 17 28 35 48 40 45 5
-4 6 2 2 11 -3 10 -2 15 3 12 5 -4 8 28 6 75 -3 75 -1 86 25 124 16 26 31 39
36 34 6 -6 1 -21 -12 -37 -18 -23 -22 -39 -20 -96 1 -37 6 -68 10 -68 4 0 11
-9 14 -20 4 -11 11 -18 16 -15 5 4 9 2 9 -4 0 -6 11 -13 25 -17 14 -3 23 -9
21 -13 -2 -3 15 -6 37 -6 61 0 110 26 131 68 9 20 20 38 25 41 11 7 -3 91 -18
109 -6 8 -9 23 -5 33 4 13 3 15 -3 6 -7 -9 -15 -7 -33 10 -19 18 -38 23 -87
25 -34 1 -65 -2 -68 -8 -8 -12 -35 -12 -35 0 0 6 27 20 60 32 33 12 60 26 60
30 0 5 6 9 14 9 8 0 18 5 22 12 4 6 3 8 -3 5 -6 -4 -3 13 5 37 22 60 9 83 -72
131 -36 21 -63 42 -60 46 3 5 -2 6 -10 3 -11 -4 -16 0 -16 12 0 12 -3 15 -8 8
-5 -8 -17 -5 -39 11 -18 12 -31 24 -29 26 3 2 -10 4 -27 4 -28 0 -81 -35 -82
-55 -2 -21 -39 -71 -50 -67 -8 4 -11 0 -8 -11 2 -9 -11 -39 -29 -66 -18 -27
-37 -57 -43 -65 -5 -9 -26 -41 -45 -71 -19 -30 -33 -59 -32 -65 2 -5 -5 -2
-14 7 -17 17 -17 18 2 40 10 12 24 28 29 36 6 7 18 22 28 33 9 10 12 19 7 19
-6 0 -5 8 2 19 7 11 16 17 20 15 5 -3 7 -2 6 3 -4 15 13 53 24 53 6 0 9 3 5 6
-6 6 2 19 40 60 12 13 20 24 17 24 -10 0 38 65 69 93 31 28 52 34 62 17 13
-21 36 -8 75 43 54 70 55 71 58 86 4 21 30 43 37 31 4 -6 -10 -36 -29 -67 -20
-32 -36 -53 -36 -48 -1 6 -8 -10 -16 -33 -14 -40 -14 -45 2 -63 9 -10 22 -19
27 -19 6 0 26 -12 44 -26 30 -23 38 -25 57 -15 12 7 34 32 49 57 17 28 32 42
39 38 7 -4 8 -3 4 4 -8 13 24 73 35 67 3 -3 7 7 7 20 0 15 -12 35 -28 49 -18
14 -25 28 -20 36 5 9 9 9 15 1 4 -7 25 -19 46 -28 25 -10 38 -21 35 -29 -3 -8
0 -11 10 -7 7 3 14 0 14 -7 0 -6 5 -8 10 -5 6 3 10 2 10 -3 0 -17 -13 -21 -32
-11 -15 8 -24 5 -44 -19 -14 -16 -36 -47 -48 -68 -13 -21 -28 -38 -35 -36 -7
1 -10 -2 -7 -7 7 -11 -14 -62 -23 -56 -4 2 -7 -5 -7 -15 0 -11 2 -17 5 -15 8
9 32 -35 25 -47 -4 -7 -3 -8 4 -4 19 11 15 -46 -5 -73 -9 -14 -11 -21 -5 -17
6 4 4 -7 -6 -24 -16 -30 -16 -32 3 -46 11 -8 20 -20 20 -27 0 -7 6 -12 13 -12
8 0 19 -8 26 -17 7 -10 16 -15 19 -11 4 3 7 1 7 -5 0 -7 7 -12 15 -12 8 0 24
-9 35 -20 12 -12 32 -25 46 -30 14 -6 23 -14 20 -18 -3 -5 11 -16 30 -25 19
-10 32 -22 29 -27 -3 -6 1 -10 9 -10 17 0 21 -15 7 -24 -5 -4 -21 9 -37 26
-15 18 -29 32 -31 30 -4 -3 -56 29 -63 40 -3 4 -11 3 -18 -1 -9 -5 0 -16 30
-36 72 -47 177 -155 233 -240 102 -154 157 -329 159 -505 1 -132 -19 -240 -44
-240 -58 0 -346 -120 -307 -128 10 -2 56 15 102 38 46 23 91 43 99 44 9 1 18
5 22 8 3 4 12 4 19 2 7 -3 16 -1 20 5 3 6 17 11 29 11 13 0 29 7 36 15 7 8 25
15 41 15 25 0 30 5 41 43 7 24 12 100 12 177 1 114 -3 151 -26 242 -64 253
-225 467 -463 618 -33 20 -69 47 -79 59 -11 11 -25 21 -33 21 -18 0 -17 9 7
55 26 51 26 105 0 138 l-20 26 46 73 c26 40 53 83 61 95 11 19 17 21 32 11 26
-16 51 -3 51 27 0 20 -14 33 -77 71 -43 25 -111 65 -151 90 -79 47 -91 51
-110 32z m101 -51 c19 -12 43 -27 53 -33 9 -6 14 -15 10 -22 -5 -8 -16 -6 -39
8 -28 17 -34 18 -54 5 -22 -15 -40 -5 -28 15 4 6 -1 23 -10 37 -17 26 -17 26
9 19 14 -3 41 -16 59 -29z m105 -122 c1 -1 -21 -39 -50 -83 -29 -44 -57 -88
-63 -96 -9 -13 -18 -11 -65 20 -30 19 -55 41 -54 47 1 7 26 52 57 100 l57 87
57 -36 c32 -21 59 -38 61 -39z m-175 -242 c97 -60 103 -72 66 -133 -25 -41
-36 -50 -65 -50 -11 0 -42 -14 -68 -30 -63 -40 -89 -97 -85 -184 4 -61 2 -66
-48 -145 l-53 -82 -27 20 c-16 11 -74 48 -129 83 -56 35 -109 68 -118 73 -13
9 -6 25 52 113 37 56 94 145 127 198 94 151 147 228 159 236 11 7 40 -8 189
-99z m96 -268 c65 -33 88 -111 51 -172 -39 -65 -99 -84 -162 -52 -94 48 -91
186 4 229 45 20 61 19 107 -5z m-582 -51 c-15 -31 -20 -34 -33 -23 -14 12 -14
15 5 30 11 9 18 19 15 22 -3 3 -3 11 1 17 5 8 10 9 18 1 8 -8 6 -21 -6 -47z
m929 -171 c-3 -3 -17 2 -31 11 -21 14 -24 20 -15 32 10 12 15 10 32 -12 11
-14 18 -28 14 -31z m40 -25 c10 -12 13 -18 5 -13 -9 5 -12 4 -10 -4 3 -7 8
-12 13 -11 11 2 70 -69 72 -88 2 -9 9 -21 16 -27 7 -5 14 -17 16 -25 2 -8 7
-17 12 -20 4 -3 16 -31 25 -62 10 -32 23 -54 28 -51 6 4 7 1 2 -6 -4 -7 -3
-23 3 -34 24 -51 32 -84 28 -114 -2 -18 0 -33 5 -33 4 0 7 -8 7 -17 0 -10 3
-48 7 -85 5 -47 4 -72 -4 -82 -9 -10 -9 -15 -1 -18 8 -2 7 -21 -3 -66 -16 -68
-21 -77 -35 -68 -6 3 -6 22 0 48 16 69 25 212 15 225 -5 7 -7 22 -4 33 3 11 1
20 -4 20 -5 0 -7 10 -4 23 4 13 -3 42 -14 67 -11 25 -21 57 -21 71 0 14 -7 40
-16 57 -8 18 -12 37 -8 43 4 8 3 9 -4 5 -7 -4 -14 3 -18 19 -3 14 -11 25 -16
25 -6 0 -7 7 -4 16 3 8 2 13 -3 10 -4 -3 -18 14 -31 37 -13 23 -26 44 -30 47
-18 14 -48 68 -42 74 4 4 3 7 -3 6 -18 -4 -26 0 -20 10 9 15 20 12 41 -12z
m-1116 -119 l29 -22 -56 -51 c-31 -28 -59 -52 -63 -54 -4 -2 -20 9 -36 23
l-27 25 54 50 c30 27 58 49 62 50 4 0 21 -10 37 -21z m242 -154 c27 -23 27
-24 13 -66 -8 -23 -15 -50 -15 -60 0 -10 -5 -21 -11 -24 -12 -8 -69 13 -69 25
0 31 34 150 44 150 6 0 23 -11 38 -25z"/>
<path d="M4110 2939 c0 -5 5 -7 10 -4 6 3 10 8 10 11 0 2 -4 4 -10 4 -5 0 -10
-5 -10 -11z"/>
<path d="M3016 4033 c-6 -14 -5 -15 5 -6 7 7 10 15 7 18 -3 3 -9 -2 -12 -12z"/>
<path d="M2733 3775 c-29 -20 -37 -61 -18 -88 8 -12 19 -22 23 -22 4 0 6 -3 5
-7 -2 -4 3 -5 11 -2 7 3 16 -2 19 -10 4 -9 15 -16 26 -16 10 0 21 -7 25 -15 3
-8 9 -14 13 -13 15 4 104 -58 96 -67 -5 -4 -3 -5 3 -2 6 3 26 -4 45 -16 19
-11 39 -21 44 -22 6 0 9 -6 8 -13 -2 -6 4 -9 12 -6 8 4 15 2 15 -4 0 -5 9 -12
21 -15 12 -3 18 -10 14 -17 -3 -6 -3 -9 2 -8 14 4 73 -20 73 -31 0 -13 28 -7
50 11 10 9 22 13 26 10 4 -4 4 -1 0 5 -4 7 -2 22 4 33 8 14 8 20 0 20 -6 0 -8
5 -4 12 4 7 3 8 -4 4 -7 -4 -12 -1 -12 6 0 7 -28 26 -61 43 -34 16 -67 37 -72
46 -6 10 -16 15 -23 12 -6 -2 -24 7 -39 21 -15 14 -36 28 -46 31 -11 4 -17 10
-14 15 3 5 0 12 -6 16 -8 4 -9 3 -5 -4 12 -20 -13 -13 -31 7 -9 11 -20 18 -25
15 -4 -3 -8 -1 -8 5 0 5 -9 13 -20 16 -11 3 -26 12 -33 18 -15 14 -75 47 -86
47 -3 0 -16 -7 -28 -15z m66 -29 c20 -13 119 -74 221 -136 102 -62 191 -119
199 -126 12 -11 12 -18 3 -39 -6 -14 -17 -25 -24 -25 -7 1 -48 22 -90 48 -286
175 -336 206 -362 226 -28 23 -28 24 -11 50 21 32 20 32 64 2z"/>
<path d="M4335 2852 c-93 -1 -174 -7 -179 -12 -12 -12 0 -13 164 -10 262 6
405 6 418 2 6 -2 12 -10 12 -18 0 -11 -26 -14 -134 -14 l-135 0 -25 -33 c-15
-19 -26 -43 -26 -55 0 -11 -4 -23 -9 -26 -5 -3 -12 -18 -15 -32 -4 -14 -15
-45 -25 -68 -29 -66 -67 -158 -81 -196 -6 -19 -16 -44 -21 -55 -33 -78 -42
-102 -45 -114 -7 -36 -77 -190 -84 -186 -5 3 -6 -5 -3 -17 4 -19 3 -20 -7 -8
-10 13 -11 12 -7 -6 5 -22 -6 -46 -38 -85 -29 -35 -91 -79 -100 -71 -5 4 -5 2
-2 -4 4 -7 -12 -24 -36 -40 -23 -15 -46 -33 -52 -38 -5 -6 -54 -46 -107 -88
-68 -54 -102 -76 -115 -72 -13 4 -14 3 -5 -3 10 -7 -7 -25 -64 -69 -42 -32
-84 -63 -92 -69 -28 -18 -58 -41 -112 -88 -68 -59 -118 -96 -124 -92 -3 3 -4
2 -2 -1 3 -4 -54 -53 -126 -110 -72 -57 -124 -104 -115 -104 9 0 96 64 194
143 155 124 446 353 524 412 150 113 335 264 359 293 17 20 53 95 81 167 28
71 61 155 74 185 13 30 64 156 113 280 l88 225 147 3 147 3 0 37 0 37 -133 0
c-72 0 -208 -1 -302 -3z"/>
<path d="M1522 2789 c-9 -3 64 -8 163 -11 238 -7 257 -13 635 -195 318 -154
537 -253 556 -252 10 0 -10 14 -46 31 -36 17 -67 35 -68 40 -2 4 -8 6 -13 2
-5 -3 -9 3 -10 13 0 10 -3 13 -6 6 -3 -8 -10 -9 -21 -3 -38 21 -213 100 -221
100 -5 0 -12 7 -15 16 -3 9 -12 14 -19 11 -14 -5 -99 37 -91 46 3 3 -3 3 -13
1 -11 -3 -25 2 -32 10 -8 9 -19 16 -25 16 -6 0 -62 25 -124 55 -63 30 -119 55
-126 55 -6 0 -20 6 -31 14 -41 28 -176 49 -328 50 -81 0 -155 -2 -165 -5z"/>
<path d="M4035 2780 c-44 -10 -122 -36 -174 -59 -51 -22 -98 -38 -104 -34 -6
3 -7 1 -3 -6 5 -7 -6 -17 -31 -27 -49 -21 -151 -69 -343 -161 -214 -104 -263
-126 -277 -126 -7 0 -10 -4 -7 -9 3 -4 0 -8 -7 -8 -7 0 -54 -20 -105 -45 -108
-53 -117 -54 -104 -20 5 14 6 25 1 25 -9 0 -101 -41 -228 -101 -45 -21 -87
-39 -94 -39 -7 0 -33 13 -58 29 -43 27 -405 236 -496 286 -22 12 -107 62 -190
110 -206 121 -329 185 -290 151 17 -15 41 -32 55 -39 42 -22 75 -42 80 -48 3
-4 15 -9 28 -13 12 -4 22 -12 22 -17 0 -5 4 -9 10 -9 5 0 50 -24 100 -52 50
-29 99 -58 109 -63 10 -6 26 -17 35 -24 9 -7 16 -10 16 -5 0 5 4 4 8 -2 4 -6
21 -18 37 -27 25 -13 27 -17 13 -22 -21 -8 -79 15 -71 29 3 5 1 6 -5 2 -6 -3
-32 6 -59 22 -26 15 -55 31 -63 35 -8 4 -42 25 -75 46 -79 51 -204 116 -211
108 -3 -3 14 -16 38 -30 24 -14 108 -63 188 -109 80 -47 165 -96 190 -110 25
-14 144 -82 265 -152 121 -69 225 -126 232 -126 19 0 16 -20 -4 -27 -33 -11
-111 -47 -388 -178 l-111 -52 -31 41 c-31 41 -65 106 -263 491 -56 110 -108
207 -116 215 -23 23 -17 -5 11 -58 14 -26 25 -55 25 -65 0 -10 4 -16 8 -13 7
4 64 -94 67 -114 1 -6 99 -196 119 -230 37 -63 46 -93 34 -109 -10 -13 -10
-14 2 -4 11 10 20 0 52 -53 21 -37 35 -71 31 -78 -3 -6 -3 -8 1 -4 5 4 18 -2
30 -13 12 -12 29 -18 41 -16 31 8 132 52 148 65 7 6 23 13 34 15 12 2 27 8 35
13 11 9 34 21 58 29 23 8 77 35 83 42 5 4 12 8 15 9 4 0 24 8 46 17 21 9 45
17 53 17 8 0 11 5 8 10 -3 6 0 10 8 10 25 0 30 33 8 51 -11 9 -17 20 -13 24 4
5 1 5 -6 1 -7 -4 -18 -3 -25 2 -7 5 -43 27 -82 47 -38 21 -73 42 -76 48 -3 5
-9 8 -13 8 -10 -2 -68 30 -84 45 -7 8 -17 14 -22 14 -14 0 -110 62 -110 71 0
24 30 15 116 -35 52 -31 99 -56 105 -56 5 0 9 -4 9 -9 0 -5 10 -11 23 -15 12
-3 31 -13 42 -23 11 -10 40 -28 65 -40 74 -37 149 -81 145 -84 -2 -2 10 -4 27
-5 20 -1 25 2 16 7 -9 6 -7 9 9 9 12 0 23 3 25 8 3 8 153 82 166 82 4 0 24 9
45 20 l37 20 -3 -20 c-2 -13 -21 -29 -53 -44 -27 -13 -107 -52 -179 -86 -71
-35 -137 -63 -145 -63 -8 0 -20 -7 -25 -14 -6 -8 -17 -15 -25 -17 -8 -1 -43
-17 -77 -34 -34 -18 -69 -32 -78 -32 -8 0 -15 -4 -15 -9 0 -5 -16 -15 -36 -21
-20 -7 -54 -23 -77 -36 -23 -13 -50 -24 -59 -24 -10 0 -18 -4 -18 -10 0 -5 -6
-10 -13 -10 -7 0 -20 -8 -29 -19 -15 -17 -14 -20 11 -44 57 -56 76 -73 113
-98 21 -14 35 -29 31 -32 -3 -4 -1 -7 6 -7 6 0 36 -18 66 -40 49 -36 56 -39
84 -29 17 6 31 14 31 18 0 10 72 45 85 42 6 -1 7 1 3 5 -10 9 55 54 77 54 10
0 13 5 9 12 -5 8 -2 9 12 4 10 -4 15 -4 11 0 -4 4 11 17 32 30 22 12 46 27 53
33 23 20 103 71 111 71 4 0 18 9 30 20 12 11 27 18 34 16 7 -3 15 0 19 6 4 7
3 8 -4 4 -7 -4 -12 -5 -12 -3 0 6 104 67 133 79 9 4 17 11 17 16 0 5 19 19 43
32 23 13 87 53 142 89 55 36 105 68 110 70 6 2 18 10 28 19 9 8 17 12 17 9 0
-4 28 13 62 38 34 25 68 43 75 41 8 -3 12 -2 9 3 -3 5 6 12 19 15 14 4 24 10
21 14 -2 4 8 13 23 20 15 7 37 21 49 32 12 11 24 20 27 20 4 0 31 16 61 36 30
20 59 32 65 28 8 -4 9 -3 5 4 -4 7 -3 12 3 12 5 0 16 6 23 13 23 23 106 66
114 59 4 -4 4 -2 1 5 -4 7 12 22 40 39 27 15 60 37 75 50 16 12 44 28 63 35
19 7 35 16 35 21 0 4 13 14 29 22 22 12 31 12 42 3 11 -10 11 -9 1 5 -9 11
-10 18 -2 23 16 10 -4 30 -32 32 -13 0 -59 -7 -103 -17z m135 -5 c0 -3 -16
-11 -36 -20 -19 -8 -72 -38 -117 -68 -45 -29 -194 -125 -332 -212 -137 -87
-282 -179 -322 -204 -39 -25 -115 -73 -167 -106 -156 -97 -320 -203 -333 -214
-7 -6 -14 -11 -17 -11 -5 0 -117 -71 -319 -202 -136 -88 -190 -123 -198 -126
-4 -2 -53 34 -109 80 -56 46 -118 95 -139 109 -20 15 -36 30 -36 33 0 4 52 31
115 60 133 61 189 88 470 221 113 54 241 114 285 135 44 21 132 62 195 93 63
30 149 71 190 90 41 19 190 90 330 157 261 125 365 168 435 180 49 9 105 12
105 5z"/>
<path d="M4220 2743 c-8 -3 -27 -14 -42 -24 -14 -11 -33 -19 -42 -19 -9 0 -16
-4 -16 -8 0 -5 -20 -19 -45 -31 -25 -12 -58 -33 -73 -45 -45 -37 -106 -71
-122 -68 -12 2 -12 1 -2 -6 11 -7 10 -10 -3 -16 -9 -3 -21 -4 -26 0 -5 3 -12
-2 -15 -10 -3 -9 -12 -16 -20 -16 -8 0 -14 -4 -14 -9 0 -5 -21 -22 -47 -37
-27 -15 -50 -30 -53 -34 -3 -4 -21 -16 -40 -27 -19 -10 -61 -36 -92 -56 -31
-20 -60 -37 -63 -37 -3 0 -27 -16 -52 -35 -25 -19 -52 -35 -59 -35 -8 0 -14
-5 -14 -11 0 -6 -7 -9 -15 -5 -8 3 -14 0 -12 -7 1 -7 -4 -11 -11 -9 -7 1 -15
-4 -18 -12 -3 -9 -13 -12 -22 -9 -9 4 -14 3 -10 -2 8 -8 -132 -102 -145 -97
-5 1 -6 -2 -2 -8 3 -5 0 -10 -8 -10 -7 0 -37 -18 -67 -40 -29 -22 -55 -38 -58
-35 -2 2 -10 -1 -18 -8 -34 -30 -44 -37 -44 -30 0 4 -4 3 -8 -2 -10 -16 -72
-58 -72 -50 0 4 -15 -5 -32 -19 -44 -35 -48 -38 -88 -60 -19 -11 -37 -22 -40
-26 -3 -3 -27 -19 -55 -35 -27 -16 -54 -32 -60 -37 -26 -22 -121 -78 -132 -78
-7 0 -13 -4 -13 -9 0 -5 -16 -19 -35 -31 -20 -12 -35 -30 -35 -40 0 -12 29
-42 73 -77 105 -84 107 -85 142 -115 20 -17 43 -27 58 -26 14 1 24 5 22 8 -2
3 14 18 36 34 21 17 39 34 39 39 0 4 5 5 12 1 7 -4 8 -3 4 4 -4 7 -3 12 3 12
5 0 38 27 73 60 35 33 66 60 69 60 8 0 45 31 127 105 30 28 59 49 64 47 5 -1
7 2 3 8 -3 5 -3 10 2 10 4 0 24 14 43 31 19 17 69 58 110 92 41 34 88 74 104
89 16 15 34 25 40 21 6 -3 8 -3 4 2 -10 11 32 46 45 38 5 -3 7 -2 4 4 -4 6 31
41 76 79 45 38 86 74 90 81 4 7 15 13 24 13 9 0 13 3 10 6 -6 7 81 79 96 79 4
0 7 4 7 8 0 7 47 50 106 97 11 8 39 32 63 52 24 21 48 35 54 31 6 -3 7 -1 3 5
-4 7 -1 12 8 12 9 0 15 4 13 9 -1 5 2 9 6 9 5 1 18 13 29 27 16 21 23 24 30
13 8 -10 9 -9 5 3 -3 10 9 28 36 50 23 19 52 44 65 56 12 13 24 22 26 20 2 -1
15 13 30 31 15 17 24 32 20 32 -7 0 -14 -5 -329 -274 -115 -98 -232 -198 -260
-221 -27 -23 -131 -111 -230 -196 -206 -176 -295 -252 -415 -352 -47 -39 -103
-88 -125 -108 -40 -36 -216 -186 -240 -203 -9 -7 -50 20 -136 89 -68 53 -125
100 -126 104 -1 3 34 29 78 56 180 111 224 139 229 145 3 3 13 10 23 15 9 6
169 107 354 225 412 264 449 287 543 345 41 26 100 63 132 83 31 20 143 92
250 159 106 67 207 131 223 143 29 19 27 25 -5 13z"/>
<path d="M4327 2723 c3 -6 -6 -17 -19 -24 -22 -12 -69 -52 -106 -91 -9 -10
-21 -18 -26 -18 -5 0 -17 -9 -26 -20 -10 -11 -34 -34 -55 -50 -20 -16 -59 -49
-85 -72 -27 -24 -69 -61 -95 -83 -26 -22 -55 -47 -64 -56 -35 -33 -99 -78
-105 -74 -3 3 -4 2 -2 -1 3 -3 -19 -26 -47 -51 -29 -26 -63 -57 -76 -70 -22
-22 -35 -27 -54 -24 -5 1 -6 -2 -3 -7 3 -5 -7 -20 -22 -33 -90 -79 -139 -115
-150 -111 -7 2 -10 -2 -6 -11 6 -17 -28 -41 -41 -29 -5 4 -5 2 -2 -4 4 -6 -6
-22 -21 -35 -83 -73 -130 -108 -136 -101 -4 4 -6 0 -4 -8 2 -11 -4 -14 -22
-12 -19 2 -22 0 -10 -8 14 -9 7 -14 -13 -11 -5 1 -6 -2 -3 -7 9 -14 -41 -55
-56 -46 -7 4 -10 4 -6 -1 4 -4 -5 -20 -20 -34 -36 -34 -136 -118 -170 -145
-15 -11 -34 -27 -42 -36 -36 -37 -127 -109 -133 -105 -4 3 -5 2 -2 -2 3 -3 -1
-13 -7 -20 -10 -12 -4 -22 28 -52 21 -20 60 -53 86 -73 26 -19 44 -39 40 -43
-4 -5 -2 -5 4 -2 7 4 26 -6 43 -22 17 -16 31 -27 31 -26 0 2 12 -2 26 -10 23
-12 29 -11 57 9 18 12 48 36 67 54 19 17 40 32 48 32 7 0 10 5 7 10 -3 6 0 10
7 10 7 0 19 9 26 20 8 13 18 17 29 13 10 -3 15 -3 11 1 -10 12 40 58 55 50 6
-4 9 -4 5 0 -9 11 110 109 122 101 6 -4 9 -1 8 7 -2 7 3 12 10 10 8 -1 11 2 7
8 -3 5 1 10 10 10 9 0 13 5 10 10 -3 6 -2 10 4 10 5 0 16 6 23 13 40 38 117
97 127 97 6 0 11 5 11 10 0 6 15 17 33 25 17 8 28 14 23 15 -11 0 140 120 151
120 5 0 14 9 21 20 7 12 17 18 21 15 5 -2 11 2 15 10 3 8 13 15 22 15 10 0 15
3 11 6 -9 10 122 106 135 98 7 -4 8 -3 4 5 -5 7 3 23 19 39 31 31 81 132 134
272 12 30 26 64 30 75 5 11 12 29 16 40 5 16 8 17 16 5 6 -10 7 -4 2 19 -3 20
-2 32 3 29 5 -4 10 4 10 15 1 12 13 47 27 77 25 55 43 101 74 192 9 27 20 45
26 41 6 -3 7 -1 3 5 -19 31 -20 28 -156 -318 -71 -182 -122 -305 -153 -369
-35 -73 -26 -65 -377 -337 -51 -40 -466 -369 -500 -397 -102 -82 -215 -174
-224 -181 -8 -6 -46 18 -112 69 -174 136 -172 134 -151 149 9 7 43 36 75 63
87 76 209 180 396 338 39 32 82 69 96 81 14 12 90 78 170 146 80 68 159 135
175 149 17 15 109 93 205 175 96 82 177 151 180 154 3 3 48 41 100 85 124 104
144 121 204 177 46 42 48 46 24 45 -15 -1 -24 -7 -21 -14z"/>
<path d="M860 2289 c0 -5 5 -7 10 -4 6 3 10 8 10 11 0 2 -4 4 -10 4 -5 0 -10
-5 -10 -11z"/>
<path d="M690 2139 c0 -5 9 -9 20 -9 11 0 20 2 20 4 0 2 -9 6 -20 9 -11 3 -20
1 -20 -4z"/>
<path d="M4632 1635 c-75 -68 -93 -152 -39 -190 34 -24 63 -18 130 25 52 33
64 37 75 26 11 -11 12 -18 1 -37 -16 -32 -47 -58 -76 -65 -25 -7 -26 -8 -17
-41 8 -31 33 -29 83 7 52 38 81 84 81 131 0 85 -69 107 -157 51 -27 -18 -57
-32 -66 -32 -31 0 -18 38 28 78 42 37 44 41 32 65 -6 15 -15 27 -18 27 -4 0
-30 -20 -57 -45z m13 -41 c-48 -48 -53 -77 -16 -99 29 -18 44 -14 84 21 25 22
53 31 86 30 29 -1 36 -5 43 -31 14 -51 -27 -121 -90 -154 -22 -12 -23 -11 -12
9 6 12 14 19 17 17 7 -8 53 35 53 50 0 7 4 13 9 13 13 0 3 49 -12 64 -14 13
-59 17 -51 4 3 -4 0 -8 -5 -8 -6 0 -13 0 -16 0 -2 0 -16 -12 -29 -25 -16 -16
-31 -23 -42 -18 -12 5 -15 3 -9 -6 6 -10 3 -11 -15 -1 -15 8 -20 8 -16 1 15
-24 -15 -9 -31 16 -12 18 -14 28 -6 30 7 3 9 11 6 19 -6 17 15 74 28 74 5 0
18 9 29 20 11 11 25 20 31 20 6 0 -10 -21 -36 -46z"/>
<path d="M1295 1569 c-22 -21 -70 -65 -107 -96 -37 -32 -67 -62 -67 -68 0 -5
32 -45 72 -89 l72 -78 25 20 25 21 -55 56 -55 55 65 58 c35 31 77 68 93 82
l28 25 -28 27 -28 26 -40 -39z m55 -16 c0 -7 -3 -13 -8 -13 -12 0 -152 -137
-152 -149 0 -6 9 -19 19 -28 11 -9 18 -20 15 -25 -3 -4 -1 -8 4 -8 5 0 17 -11
26 -25 26 -40 11 -29 -49 33 -50 52 -75 91 -40 62 13 -11 14 -10 9 4 -5 13 14
36 71 90 75 70 105 87 105 59z"/>
<path d="M4445 1433 c-71 -37 -105 -90 -105 -165 0 -104 118 -178 212 -134 52
25 98 77 105 119 5 36 5 37 -26 37 -21 0 -31 -5 -31 -15 0 -8 -14 -30 -31 -50
-24 -27 -39 -35 -66 -35 -49 0 -93 45 -93 95 0 44 45 95 83 95 24 0 36 20 37
58 0 17 -49 15 -85 -5z m52 -17 c0 -7 -15 -19 -34 -25 -18 -7 -33 -17 -33 -22
0 -6 -4 -8 -9 -5 -5 4 -17 -14 -27 -39 -14 -38 -15 -50 -5 -73 7 -15 13 -29
13 -32 1 -3 14 -14 29 -26 16 -11 26 -24 22 -28 -4 -4 0 -4 10 0 9 3 24 1 32
-6 8 -6 20 -10 27 -7 8 3 4 6 -7 7 -12 0 -5 6 20 15 22 8 48 25 58 37 9 13 24
32 32 43 20 25 19 2 0 -36 -9 -16 -20 -27 -24 -24 -5 3 -11 -2 -15 -10 -3 -8
-12 -15 -19 -15 -8 0 -20 -7 -27 -15 -7 -8 -24 -15 -39 -15 -27 0 -111 34
-111 45 0 3 4 4 9 0 5 -3 13 0 17 6 4 8 3 9 -4 5 -6 -4 -21 3 -33 15 -18 18
-21 30 -17 69 3 27 11 55 19 63 8 8 22 26 32 40 12 16 25 23 35 20 9 -4 13 -2
9 5 -6 9 3 15 34 21 3 0 6 -5 6 -13z"/>
<path d="M1476 1351 c-27 -31 -73 -81 -102 -113 l-52 -56 22 -21 c12 -12 27
-21 33 -21 5 0 53 49 106 109 l95 109 -26 24 -27 25 -49 -56z m74 7 c0 -12
-37 -28 -45 -20 -5 4 -5 1 -1 -6 4 -7 13 -9 19 -5 7 4 -2 -7 -20 -25 -17 -18
-37 -32 -43 -32 -6 0 -9 -4 -6 -8 7 -11 -64 -92 -80 -92 -21 0 -9 29 24 60 18
16 32 32 32 36 0 16 86 101 103 100 9 0 17 -4 17 -8z"/>
<path d="M1610 1272 c-14 -20 -53 -77 -88 -126 l-62 -89 31 -19 c17 -11 32
-18 33 -16 1 2 21 33 44 69 39 61 61 121 26 71 -8 -12 -20 -20 -25 -17 -5 3
-6 -1 -3 -9 3 -9 1 -16 -6 -16 -6 0 -8 -4 -5 -10 3 -5 2 -10 -4 -10 -6 0 -17
-12 -24 -26 -8 -15 -17 -22 -20 -16 -8 12 17 64 27 55 4 -4 4 1 0 11 -6 15 -4
17 6 11 8 -5 11 -4 7 1 -3 6 10 27 29 48 19 20 34 41 34 46 0 11 29 40 40 40
9 0 6 -47 -5 -74 -6 -13 -5 -17 3 -12 8 5 10 -12 8 -58 -4 -74 8 -95 43 -77
24 13 31 14 31 3 0 -9 -69 -42 -87 -42 -7 0 -9 25 -6 74 3 41 1 76 -4 79 -5 3
-10 1 -10 -6 0 -7 -4 -46 -8 -88 -7 -71 -6 -77 12 -83 13 -4 44 6 87 30 63 33
98 40 65 11 -18 -15 -93 -127 -88 -130 2 -2 15 -10 29 -19 l25 -15 87 128 87
127 -26 18 c-26 16 -28 16 -120 -30 -51 -25 -95 -46 -98 -46 -4 0 0 68 10 167
4 37 1 44 -23 62 l-28 19 -24 -36z m280 -164 c0 -6 -7 -8 -14 -5 -10 4 -13 1
-9 -9 3 -7 0 -14 -6 -14 -6 0 -11 -7 -11 -16 0 -27 -112 -178 -120 -163 -10
16 18 61 33 52 6 -3 7 -1 3 5 -7 12 13 52 27 52 4 0 5 -5 1 -12 -5 -7 -3 -8 5
-3 9 5 9 11 3 17 -6 6 -8 16 -5 23 5 15 -32 39 -47 30 -6 -3 -10 -4 -10 0 0 3
28 18 63 34 60 27 87 30 87 9z"/>
<path d="M1721 1274 c0 -11 3 -14 6 -6 3 7 2 16 -1 19 -3 4 -6 -2 -5 -13z"/>
<path d="M4199 1233 c-13 -9 -26 -18 -28 -19 -6 -5 164 -243 174 -243 6 0 21
8 33 19 l24 20 -29 37 c-16 21 -51 71 -78 111 -62 93 -66 95 -96 75z m68 -70
c21 -32 50 -75 66 -95 16 -21 25 -38 20 -38 -4 0 -2 -4 5 -9 10 -6 9 -11 -5
-22 -10 -7 -15 -10 -11 -5 4 5 -6 22 -23 40 -16 17 -32 39 -35 49 -3 9 -10 17
-16 17 -6 0 -8 3 -5 7 4 3 -1 12 -11 20 -11 10 -12 12 -2 8 13 -6 13 -5 0 7
-33 29 -52 57 -45 67 12 20 25 11 62 -46z"/>
<path d="M4075 1151 c-22 -15 -67 -43 -100 -61 -33 -18 -63 -35 -68 -37 -6 -3
6 -36 18 -51 2 -2 18 6 36 17 19 12 37 21 41 21 4 0 35 -47 68 -104 l61 -105
29 17 c17 9 30 21 30 25 0 4 -16 33 -35 63 -19 30 -35 57 -35 59 0 3 -11 23
-25 45 l-25 39 40 22 c22 13 38 28 35 33 -3 6 -8 19 -11 29 -8 22 -11 21 -59
-12z m35 -23 c0 -6 -3 -9 -6 -5 -5 5 -54 -39 -54 -49 0 -2 9 -18 20 -36 11
-18 20 -42 20 -53 0 -17 2 -17 10 -5 9 14 11 10 10 -15 -1 -3 6 -13 15 -21 8
-9 15 -22 15 -30 0 -8 4 -14 10 -14 5 0 7 -7 4 -15 -4 -8 -10 -15 -14 -15 -9
0 -25 40 -22 52 1 5 -4 7 -10 5 -7 -1 -12 4 -10 11 1 6 -2 12 -7 12 -5 0 -19
20 -31 45 -12 25 -31 52 -43 60 -18 13 -23 13 -37 0 -9 -8 -23 -15 -31 -15
-16 0 66 54 99 64 12 4 20 11 17 16 -5 7 10 15 38 19 4 0 7 -4 7 -11z"/>
<path d="M4066 997 c3 -10 9 -15 12 -12 3 3 0 11 -7 18 -10 9 -11 8 -5 -6z"/>
<path d="M1917 945 l-67 -135 103 -50 c57 -28 108 -50 113 -50 5 0 14 11 20
24 11 24 9 26 -62 56 -71 31 -116 34 -77 4 11 -8 13 -13 5 -14 -7 0 -24 11
-37 24 -13 13 -26 22 -29 19 -2 -3 -2 4 1 16 3 11 9 18 14 15 5 -3 9 7 9 21 0
17 4 24 12 19 6 -4 9 -3 6 2 -3 5 11 43 33 84 21 41 38 69 39 61 0 -8 7 -11
20 -8 11 3 18 2 15 -3 -3 -4 7 -11 21 -14 15 -4 24 -9 22 -12 -3 -2 -18 0 -34
6 -24 10 -30 8 -45 -12 -28 -37 -29 -65 -2 -79 12 -7 21 -14 19 -16 -2 -3 -13
0 -24 6 -15 8 -24 5 -42 -14 -13 -14 -20 -25 -17 -25 4 0 0 -11 -9 -25 -14
-22 -15 -25 -1 -25 9 0 21 16 28 35 15 40 20 39 102 -2 l47 -23 12 25 c6 14 9
26 7 28 -2 1 -30 15 -62 30 -51 24 -57 30 -51 50 3 12 9 25 13 29 3 4 39 -9
79 -29 40 -19 75 -33 76 -32 2 2 7 14 10 26 7 20 -2 27 -94 73 -56 27 -103 50
-104 50 -1 0 -32 -61 -69 -135z m231 24 c3 -12 2 -12 -6 0 -5 7 -14 11 -20 7
-5 -3 -15 1 -22 8 -9 12 -7 13 16 7 15 -4 29 -14 32 -22z m-73 -90 c11 -16 1
-19 -13 -3 -7 8 -8 14 -3 14 5 0 13 -5 16 -11z m-29 -136 c-7 -7 -52 15 -66
33 -12 14 -6 13 27 -6 24 -13 41 -25 39 -27z"/>
<path d="M3843 1022 c-16 -12 -26 -35 -34 -75 -11 -63 -7 -114 5 -62 4 17 13
50 21 75 12 41 14 42 14 14 1 -16 -5 -36 -11 -43 -11 -11 -10 -12 1 -6 9 5 12
2 8 -11 -14 -49 -17 -103 -9 -142 13 -57 -3 -53 -29 8 -12 28 -27 50 -33 50
-6 0 -26 14 -44 30 -18 17 -45 37 -60 45 -37 20 -11 19 32 -2 19 -9 33 -20 30
-25 -3 -4 0 -9 5 -9 21 -3 26 -4 39 -12 6 -5 12 -4 12 1 0 5 -25 29 -56 52
-49 37 -60 41 -86 34 -16 -5 -30 -13 -30 -19 -1 -5 35 -37 80 -70 70 -52 83
-66 98 -110 9 -27 18 -51 19 -53 3 -4 65 20 65 25 0 3 -7 29 -16 58 -11 41
-13 63 -5 92 15 57 25 173 15 173 -5 0 -19 -8 -31 -18z"/>
<path d="M2373 766 l-100 -133 39 -10 c21 -6 38 -7 38 -4 1 3 9 16 20 29 18
22 20 22 81 8 64 -14 79 -26 79 -62 0 -17 9 -24 41 -32 l41 -10 -7 26 c-4 15
-19 87 -34 161 l-27 134 -36 13 -35 12 -100 -132z m145 92 c10 -13 28 -101 25
-125 0 -7 3 -11 7 -8 4 2 11 -23 14 -56 4 -33 10 -67 13 -75 4 -10 0 -12 -11
-8 -9 3 -16 17 -16 29 0 13 -10 32 -23 42 -13 10 -22 24 -20 30 3 7 -11 15
-34 19 -21 4 -41 8 -45 11 -4 2 7 24 25 49 26 38 33 42 39 27 3 -10 7 -30 7
-44 1 -14 7 -34 15 -44 13 -18 14 -16 14 19 0 51 -22 102 -48 109 -11 3 -18 1
-15 -3 3 -5 -6 -21 -19 -37 -49 -59 -43 -93 21 -114 26 -8 25 -9 -7 -3 -19 3
-45 7 -58 10 -15 3 -30 -4 -46 -21 -13 -13 -25 -22 -28 -19 -8 7 43 84 54 84
5 0 7 4 3 9 -3 5 5 17 17 25 12 9 19 16 14 16 -5 0 -3 7 4 15 7 8 16 13 20 10
4 -3 10 8 13 24 5 25 16 34 48 40 4 0 11 -5 17 -11z"/>
<path d="M3434 887 l-31 -9 36 -138 c20 -76 39 -141 42 -144 2 -3 38 4 79 15
41 12 87 23 103 26 28 5 35 25 18 52 -8 12 -18 12 -68 -2 -33 -10 -64 -17 -69
-17 -12 0 -25 38 -50 140 -10 41 -20 78 -23 81 -3 3 -20 2 -37 -4z m40 -78 c9
-33 15 -63 12 -67 -2 -4 6 -27 18 -52 17 -35 27 -44 44 -43 32 4 27 -14 -5
-20 -16 -3 -31 0 -35 6 -5 8 -8 5 -9 -8 -1 -27 -28 62 -31 102 -2 18 -6 33
-10 33 -4 0 -5 7 -2 15 4 8 1 15 -6 15 -6 0 -10 6 -7 13 2 6 0 24 -4 40 -5 19
-4 27 5 27 7 0 20 -27 30 -61z m157 -158 c-7 -5 -23 -6 -35 -3 -19 6 -18 7 9
12 34 7 46 3 26 -9z"/>
<path d="M2707 783 c-4 -37 -7 -107 -7 -155 l0 -88 35 0 c23 0 35 5 34 13 -1
6 -1 48 0 92 2 91 -4 93 81 -25 60 -84 67 -90 101 -90 l29 0 2 140 c0 77 1
145 2 152 1 7 -13 12 -34 12 l-35 0 -5 -93 -5 -92 -39 58 c-21 32 -50 75 -64
96 -14 20 -33 37 -43 37 -10 0 -24 2 -32 5 -11 5 -15 -9 -20 -62z m53 26 c0
-5 4 -8 8 -5 4 3 16 -11 27 -30 10 -19 22 -34 28 -34 5 0 6 -7 3 -16 -3 -8 -2
-13 3 -10 4 3 14 -6 21 -19 7 -14 24 -32 38 -41 34 -22 42 -7 42 84 0 58 3 72
16 72 13 0 15 -17 12 -125 -2 -76 -7 -126 -13 -129 -6 -2 -23 9 -38 25 -15 16
-23 29 -19 29 4 0 0 5 -8 10 -13 9 -13 11 0 21 13 9 13 10 -1 6 -11 -4 -26 8
-45 33 -16 22 -35 42 -41 44 -23 9 -43 -6 -43 -33 -1 -14 -7 -39 -16 -56 l-14
-30 5 34 c3 18 5 67 5 107 0 59 3 74 15 74 8 0 15 -5 15 -11z m-19 -223 c5 3
9 1 9 -5 0 -5 -4 -13 -10 -16 -5 -3 -10 -4 -10 -1 0 2 -2 10 -3 18 -2 7 -2 10
0 5 3 -4 9 -5 14 -1z"/>
<path d="M2931 644 c0 -11 3 -14 6 -6 3 7 2 16 -1 19 -3 4 -6 -2 -5 -13z"/>
<path d="M3184 843 c-30 -4 -31 -6 -73 -145 -24 -78 -45 -147 -47 -153 -3 -7
7 -10 30 -7 29 3 37 10 46 37 10 32 13 33 78 40 57 6 68 5 77 -10 27 -46 31
-48 68 -41 l36 7 -82 139 c-45 77 -86 139 -92 138 -5 -1 -24 -3 -41 -5z m58
-53 c3 -14 13 -29 36 -55 6 -7 12 -19 12 -25 0 -6 16 -33 35 -61 32 -48 37
-69 15 -69 -5 0 -12 11 -16 25 -6 25 -38 40 -79 37 -15 -1 -17 1 -5 8 8 5 18
6 22 4 4 -3 9 0 9 5 1 6 2 17 3 24 1 6 -4 18 -11 25 -7 8 -11 18 -8 23 4 5 2
9 -3 9 -5 0 -14 11 -20 25 -13 29 -28 31 -52 10 -17 -16 -17 -16 -11 37 1 4
11 8 24 10 24 4 44 -8 49 -32z m-8 -67 c15 -25 25 -47 24 -48 -2 -1 -23 -5
-46 -8 -41 -5 -44 -4 -38 16 4 12 9 37 13 55 3 17 9 32 13 32 5 0 20 -21 34
-47z m-76 -15 c-1 -24 1 -50 5 -58 5 -10 -2 -21 -22 -35 -16 -10 -29 -22 -29
-25 2 -19 -3 -30 -12 -25 -6 4 -5 16 2 33 5 15 11 34 12 42 1 8 10 32 19 54 9
21 17 42 17 47 0 5 2 9 5 9 3 0 4 -19 3 -42z"/>
<path d="M164 2305 c-10 -8 -14 -14 -9 -15 15 0 40 18 34 24 -3 3 -14 -1 -25
-9z"/>
<path d="M5985 1710 c3 -5 8 -10 11 -10 2 0 4 5 4 10 0 6 -5 10 -11 10 -5 0
-7 -4 -4 -10z"/>
<path d="M480 1610 c0 -5 5 -10 10 -10 6 0 10 5 10 10 0 6 -4 10 -10 10 -5 0
-10 -4 -10 -10z"/>
<path d="M15 1070 c-3 -5 -1 -10 4 -10 6 0 11 5 11 10 0 6 -2 10 -4 10 -3 0
-8 -4 -11 -10z"/>
<path d="M490 350 c0 -5 5 -10 11 -10 5 0 7 5 4 10 -3 6 -8 10 -11 10 -2 0 -4
-4 -4 -10z"/>
<path d="M1565 60 c3 -5 8 -10 11 -10 2 0 4 5 4 10 0 6 -5 10 -11 10 -5 0 -7
-4 -4 -10z"/>
<path d="M250 30 c0 -5 5 -10 11 -10 5 0 7 5 4 10 -3 6 -8 10 -11 10 -2 0 -4
-4 -4 -10z"/>
</g>
</svg>
