<?xml version="1.0" standalone="no"?>
<!DOCTYPE svg PUBLIC "-//W3C//DTD SVG 20010904//EN"
 "http://www.w3.org/TR/2001/REC-SVG-20010904/DTD/svg10.dtd">
<svg version="1.0" xmlns="http://www.w3.org/2000/svg"
 width="600.000000pt" height="590.000000pt" viewBox="0 0 600.000000 590.000000"
 preserveAspectRatio="xMidYMid meet">
<circle cx="300" cy="295" r="295" fill="#ffffff"/>
<g transform="translate(0.000000,590.000000) scale(0.100000,-0.100000)"
fill="#000000" stroke="none">
<path d="M4280 5869 c0 -5 5 -7 10 -4 6 3 10 8 10 11 0 2 -4 4 -10 4 -5 0 -10
-5 -10 -11z"/>
<path d="M2730 5764 c-14 -2 -59 -9 -100 -15 -140 -19 -265 -41 -315 -54 -166
-45 -209 -58 -295 -89 -114 -41 -225 -88 -283 -120 -23 -13 -78 -42 -122 -66
-284 -152 -607 -425 -824 -695 -215 -267 -431 -672 -501 -940 -4 -16 -17 -64
-28 -105 -73 -266 -111 -624 -93 -869 45 -595 228 -1092 571 -1548 228 -303
596 -611 940 -787 41 -22 80 -42 85 -46 36 -26 311 -130 425 -161 156 -42 178
-47 275 -63 55 -10 129 -22 165 -29 109 -20 590 -16 735 6 377 58 728 182
1027 362 9 5 38 23 65 39 313 187 648 516 873 856 285 432 450 985 450 1511 0
326 -50 617 -162 944 -29 85 -38 108 -84 215 -52 122 -247 454 -312 531 -11
13 -49 60 -84 104 -143 181 -417 430 -603 550 -49 31 -106 67 -125 80 -256
163 -623 301 -935 350 -55 9 -120 21 -145 26 -45 11 -552 21 -600 13z m610
-38 c47 -8 117 -20 155 -27 39 -6 99 -19 135 -29 36 -10 90 -23 120 -30 30 -7
60 -16 65 -20 6 -5 43 -18 82 -30 42 -13 70 -26 67 -32 -4 -6 1 -8 13 -4 13 4
55 -10 119 -40 207 -97 298 -149 484 -277 111 -77 134 -98 118 -109 -9 -5 -6
-7 8 -6 26 4 175 -121 168 -140 -2 -8 1 -12 8 -10 18 6 102 -78 92 -93 -4 -7
-3 -10 4 -5 11 7 58 -40 126 -124 19 -25 45 -55 56 -68 12 -12 18 -27 14 -34
-4 -6 -3 -8 3 -5 5 3 17 -3 26 -14 9 -10 14 -19 12 -19 -3 0 4 -10 15 -22 11
-12 18 -28 15 -36 -2 -7 -1 -10 5 -7 5 3 17 -7 27 -22 10 -15 21 -32 26 -38 4
-5 29 -46 54 -90 25 -44 53 -91 61 -105 74 -119 172 -359 172 -420 0 -22 3
-30 9 -22 6 10 11 6 19 -15 19 -49 31 -104 25 -119 -3 -8 -1 -14 5 -14 12 0
33 -90 25 -104 -3 -5 -1 -6 4 -3 7 4 13 -15 18 -51 4 -31 11 -64 15 -72 5 -9
11 -58 14 -109 3 -57 10 -97 17 -102 8 -5 10 -24 5 -62 -3 -31 -2 -58 3 -61
13 -8 13 -271 0 -396 -5 -58 -10 -113 -10 -122 0 -10 -4 -18 -9 -18 -5 0 -9
-19 -8 -43 1 -54 -11 -127 -21 -127 -5 0 -6 -11 -3 -25 2 -14 0 -25 -7 -25 -5
0 -8 -7 -5 -15 7 -17 -37 -185 -47 -185 -4 0 -5 -10 -1 -22 4 -16 2 -19 -8
-13 -9 6 -11 4 -5 -5 7 -12 -12 -89 -25 -100 -4 -3 -17 -38 -30 -77 -13 -40
-27 -73 -32 -73 -4 0 -8 -6 -8 -14 0 -21 -42 -116 -51 -116 -5 0 -9 -9 -9 -21
0 -13 -4 -18 -12 -13 -6 4 -8 3 -5 -4 9 -13 -2 -44 -13 -37 -4 3 -7 -1 -7 -8
1 -20 -24 -77 -34 -77 -5 0 -9 -6 -9 -14 0 -7 -7 -19 -15 -26 -8 -6 -13 -15
-12 -18 3 -11 -44 -82 -54 -82 -5 0 -8 -3 -7 -7 4 -15 -34 -63 -45 -56 -6 4
-7 1 -2 -7 5 -8 2 -18 -6 -24 -8 -6 -22 -25 -31 -41 -10 -17 -22 -29 -27 -28
-5 1 -8 -5 -7 -15 0 -10 -6 -16 -16 -16 -10 1 -14 -4 -11 -12 3 -8 -12 -31
-36 -54 -23 -22 -39 -40 -36 -40 7 0 -32 -45 -111 -128 -40 -42 -77 -71 -83
-68 -7 4 -9 1 -5 -8 6 -16 -28 -40 -41 -28 -5 4 -5 2 -2 -4 7 -13 -49 -68
-143 -139 -36 -27 -67 -52 -70 -55 -12 -16 -173 -122 -260 -172 -125 -71 -287
-150 -315 -153 -5 0 -21 -8 -35 -17 -14 -8 -50 -23 -80 -33 -30 -10 -68 -24
-85 -32 -16 -7 -73 -24 -125 -37 -52 -14 -108 -29 -125 -35 -47 -16 -173 -33
-185 -26 -6 4 -16 2 -23 -3 -47 -38 -517 -56 -692 -26 -49 8 -112 17 -140 20
-105 10 -240 35 -243 44 -2 6 -7 8 -12 5 -4 -2 -43 6 -86 19 -44 14 -100 30
-126 37 -26 7 -44 17 -41 23 3 5 2 6 -4 3 -13 -8 -83 14 -83 25 0 5 -4 6 -10
3 -5 -3 -22 0 -37 9 -16 8 -46 22 -68 31 -63 27 -238 116 -255 130 -8 7 -31
20 -50 30 -69 34 -200 127 -193 138 3 5 1 7 -5 3 -6 -3 -17 1 -25 9 -9 8 -18
15 -22 15 -3 0 -11 5 -18 10 -7 6 -30 24 -52 41 -37 28 -208 182 -245 220 -96
100 -150 160 -150 169 0 5 -4 10 -8 10 -11 0 -108 131 -105 142 2 4 -4 8 -12
8 -8 0 -15 6 -15 14 0 8 -3 16 -7 18 -5 2 -18 17 -29 34 -17 24 -20 34 -11 50
9 16 9 17 -5 6 -13 -10 -17 -10 -22 3 -3 8 -26 46 -51 85 -25 38 -45 76 -45
84 0 8 -4 16 -9 18 -5 2 -11 10 -13 18 -2 8 -6 17 -9 20 -11 10 -99 199 -99
214 0 8 -4 17 -9 20 -5 3 -19 38 -32 78 -12 40 -27 78 -31 84 -5 7 -11 25 -13
40 -2 16 -16 69 -30 117 -14 48 -23 93 -19 99 4 7 3 8 -4 4 -8 -5 -12 3 -13
23 -1 17 -2 34 -3 39 -15 58 -26 134 -32 207 -3 50 -9 94 -12 100 -3 5 -8 55
-10 110 -2 55 -4 107 -4 115 -2 39 12 272 16 279 3 4 8 43 12 87 12 149 75
438 115 524 11 25 22 54 24 65 2 11 4 20 5 20 1 0 3 8 5 17 2 9 10 32 19 49 9
18 16 36 16 40 0 20 61 139 70 139 6 0 9 4 5 10 -3 5 7 33 22 61 15 28 37 69
48 91 11 21 25 35 29 31 5 -4 6 -3 2 4 -4 7 -2 21 3 30 6 10 11 14 11 9 0 -5
11 12 25 38 30 56 49 78 60 68 5 -4 5 -1 1 6 -7 12 50 112 65 112 4 0 10 8 13
18 3 9 19 33 36 52 16 19 47 55 67 80 54 63 282 290 322 320 18 14 42 33 53
43 67 63 358 257 358 239 0 -4 4 -2 8 4 9 14 206 124 221 124 6 0 19 4 29 9
52 27 131 61 143 61 8 0 20 5 27 12 7 7 12 9 12 5 0 -4 16 -1 35 7 19 8 35 12
35 8 0 -4 4 -2 8 4 7 12 92 39 152 49 19 3 44 10 55 15 29 14 262 53 386 66
35 3 66 8 69 11 11 12 488 -6 570 -21z"/>
<path d="M2749 5695 c-2 -1 -31 -6 -64 -9 -33 -3 -94 -12 -135 -20 -42 -8 -85
-13 -95 -12 -11 2 -22 0 -25 -4 -4 -6 -162 -45 -222 -54 -9 -1 -22 -7 -30 -13
-7 -5 -28 -13 -45 -16 -18 -4 -52 -15 -75 -26 -24 -10 -65 -26 -93 -36 -27 -9
-60 -23 -73 -31 -13 -9 -31 -13 -40 -9 -9 3 -13 3 -9 -1 3 -4 -51 -36 -121
-71 -70 -35 -128 -68 -130 -73 -2 -6 -8 -10 -13 -10 -8 0 -167 -101 -196 -125
-7 -5 -23 -18 -35 -27 -197 -149 -413 -362 -549 -543 -57 -77 -156 -226 -165
-250 -3 -8 -11 -12 -17 -8 -6 3 -7 1 -3 -6 10 -15 -33 -83 -46 -75 -6 4 -8 2
-4 -4 3 -6 -10 -44 -30 -84 -75 -154 -138 -303 -159 -378 -7 -25 -24 -83 -38
-130 -14 -47 -28 -107 -32 -135 -4 -27 -13 -56 -19 -64 -6 -8 -10 -17 -10 -20
1 -3 0 -10 -1 -16 -29 -103 -41 -716 -17 -826 7 -31 14 -76 17 -100 4 -46 26
-147 51 -237 8 -29 12 -58 8 -65 -4 -6 -4 -9 1 -5 7 7 58 -131 68 -182 2 -8 9
-25 15 -37 7 -13 10 -23 6 -23 -3 0 -1 -7 6 -15 7 -9 10 -18 7 -21 -3 -4 3
-15 14 -27 10 -11 19 -26 19 -32 0 -11 32 -84 52 -120 7 -11 27 -49 45 -84 19
-35 43 -77 53 -92 11 -15 20 -30 20 -33 0 -3 14 -25 30 -49 17 -25 30 -49 30
-53 0 -5 12 -20 25 -33 14 -13 25 -27 25 -33 0 -5 14 -23 31 -41 17 -18 35
-44 41 -60 5 -15 19 -32 29 -38 11 -5 16 -15 13 -21 -4 -6 -3 -8 4 -4 6 3 20
-6 32 -21 12 -16 36 -44 53 -63 18 -19 44 -50 60 -68 15 -19 27 -32 27 -29 0
2 29 -23 65 -57 35 -33 70 -66 77 -71 7 -6 36 -28 63 -50 28 -22 58 -46 67
-55 9 -8 24 -21 33 -28 8 -7 13 -17 10 -22 -3 -6 1 -7 9 -4 18 7 68 -29 58
-42 -4 -5 -3 -6 2 -2 9 7 96 -37 107 -54 7 -11 37 -28 190 -106 68 -34 126
-66 129 -71 3 -4 17 -11 33 -15 15 -3 27 -11 27 -17 0 -6 4 -8 9 -5 5 3 26 -2
47 -11 22 -9 44 -17 49 -17 22 -2 85 -31 85 -39 0 -4 5 -5 10 -2 6 3 16 3 23
-2 6 -4 17 -8 22 -8 16 -2 68 -16 90 -25 18 -8 129 -35 183 -45 12 -2 26 -6
30 -9 5 -3 31 -7 58 -10 27 -3 83 -9 124 -15 92 -13 257 -21 370 -19 47 0 126
1 177 2 50 1 90 4 88 7 -2 3 44 11 103 18 59 8 127 19 152 26 25 7 113 32 195
55 83 24 161 43 174 42 18 0 20 2 10 9 -11 7 -11 9 4 10 24 2 24 2 102 38 39
18 79 36 90 40 11 5 38 17 60 27 22 10 43 17 48 16 4 -1 7 2 7 7 0 10 27 21
44 20 5 0 13 6 18 15 5 9 13 14 19 11 5 -4 9 -2 9 3 0 4 19 19 43 32 23 13 53
32 66 42 13 10 27 15 32 12 5 -3 9 -1 9 5 0 12 102 76 115 72 6 -1 7 1 3 5
-11 10 80 76 94 68 6 -4 8 -3 4 4 -3 6 6 20 21 31 39 29 85 71 179 162 44 44
84 77 87 74 4 -3 5 -2 3 1 -7 9 38 52 48 46 5 -3 6 0 3 5 -4 6 5 24 21 41 15
16 41 46 57 67 17 21 40 49 52 61 12 13 24 33 28 44 4 11 11 18 16 14 5 -3 8
-2 7 3 -2 8 48 93 61 103 9 7 82 132 128 217 20 38 42 79 50 93 7 14 13 31 13
38 0 7 4 10 10 7 5 -3 7 0 4 8 -3 8 2 22 11 31 9 9 13 16 9 16 -3 0 -1 7 6 16
8 8 15 27 16 40 2 14 9 35 16 47 8 12 22 49 32 82 11 33 23 69 27 80 21 50 78
286 85 350 2 22 8 63 14 90 22 111 34 587 16 647 -5 15 -27 168 -31 213 -2 17
-4 30 -5 30 -2 0 -4 9 -5 20 -5 32 -33 145 -54 214 -11 35 -18 68 -16 72 3 4
2 9 -2 11 -5 1 -16 28 -27 58 -10 30 -27 74 -37 97 -10 23 -19 46 -19 51 0 11
-114 240 -149 301 -15 25 -28 49 -30 53 -1 4 -30 51 -64 104 -34 54 -60 102
-59 108 2 6 0 8 -3 4 -8 -8 -45 34 -45 50 0 6 -3 12 -7 14 -5 2 -43 44 -86 93
-44 50 -116 129 -162 176 -46 48 -81 90 -77 93 3 4 -1 4 -9 1 -11 -4 -25 5
-42 24 -14 17 -28 31 -31 31 -4 0 -12 6 -86 68 -19 16 -66 51 -105 77 -38 26
-72 51 -75 55 -3 4 -21 17 -40 27 -106 60 -125 73 -122 83 1 6 -2 9 -7 6 -12
-8 -42 4 -36 14 3 4 -1 7 -8 7 -23 -2 -157 66 -150 76 4 7 0 8 -12 4 -11 -5
-31 1 -52 13 -19 11 -40 20 -48 20 -7 0 -20 6 -27 13 -7 6 -24 14 -38 16 -14
1 -42 12 -63 22 -21 11 -41 18 -46 15 -4 -3 -19 1 -33 8 -14 7 -38 16 -54 19
-113 24 -262 62 -259 66 2 3 -13 6 -33 7 -58 0 -162 16 -158 23 4 6 -529 13
-535 6z m537 -35 c247 -30 558 -114 758 -205 103 -46 188 -89 241 -119 33 -20
67 -39 75 -43 65 -32 262 -177 385 -284 147 -127 228 -215 412 -443 74 -91
275 -453 318 -571 10 -27 22 -54 25 -60 10 -14 63 -175 88 -265 65 -235 92
-446 92 -714 0 -299 -36 -533 -126 -813 -154 -480 -415 -874 -819 -1234 -49
-43 -227 -178 -272 -205 -171 -104 -234 -139 -336 -188 -260 -125 -558 -212
-842 -247 -128 -15 -480 -15 -610 0 -229 28 -456 84 -699 176 -75 28 -328 152
-373 183 -16 10 -62 40 -103 67 -283 182 -606 502 -792 785 -181 276 -310 579
-379 890 -75 337 -89 743 -34 1022 78 398 166 634 357 961 334 569 908 1019
1548 1211 182 54 390 93 573 106 127 10 393 4 513 -10z"/>
<path d="M2805 5083 c-170 -14 -371 -57 -530 -113 -179 -62 -438 -203 -577
-314 -14 -11 -41 -32 -60 -46 -36 -27 -259 -247 -298 -295 -203 -247 -360
-557 -429 -845 -56 -238 -74 -486 -52 -714 54 -551 331 -1070 756 -1420 348
-287 732 -446 1170 -487 238 -21 489 -2 713 56 276 72 596 233 803 405 78 64
278 265 334 335 211 262 370 613 429 945 32 180 37 522 11 695 -14 88 -75 325
-105 405 -35 95 -162 354 -181 370 -3 3 -12 16 -19 30 -21 40 -146 203 -227
295 -167 192 -424 384 -663 496 -47 22 -92 44 -101 49 -55 29 -281 96 -424
125 -136 28 -395 41 -550 28z m395 -29 c41 -3 91 -9 110 -14 19 -5 53 -11 75
-14 22 -3 60 -12 84 -20 24 -9 53 -16 65 -16 12 0 39 -9 61 -20 22 -11 49 -20
62 -20 12 0 25 -4 28 -10 3 -5 14 -10 23 -10 10 0 34 -9 55 -20 20 -11 44 -20
52 -20 8 0 15 -4 15 -10 0 -5 3 -9 8 -9 13 3 72 -25 72 -34 0 -4 4 -6 9 -3 5
4 22 -4 38 -17 15 -13 34 -22 41 -20 6 3 12 1 12 -5 0 -5 12 -14 26 -20 15 -7
22 -17 18 -24 -5 -7 -3 -8 5 -3 8 4 25 -1 42 -14 15 -11 31 -21 34 -21 16 0
143 -104 138 -113 -3 -6 -2 -7 4 -4 37 23 455 -435 456 -500 0 -7 4 -13 9 -13
5 0 16 -16 25 -35 9 -19 19 -35 22 -35 7 0 73 -128 93 -177 7 -18 16 -33 19
-33 5 0 29 -66 35 -99 1 -7 7 -18 13 -24 6 -6 11 -24 11 -39 0 -15 4 -28 9
-28 14 0 52 -177 45 -208 -4 -19 -3 -23 4 -13 13 18 29 -54 42 -184 19 -201
-5 -676 -33 -658 -6 4 -8 -2 -5 -15 7 -24 -30 -173 -45 -183 -5 -3 -8 -9 -7
-13 4 -13 -43 -153 -71 -216 -49 -106 -103 -210 -119 -229 -8 -9 -24 -32 -34
-51 -32 -57 -83 -120 -91 -112 -5 4 -5 1 -1 -6 5 -8 -10 -34 -40 -70 -78 -94
-197 -211 -207 -205 -6 3 -7 1 -4 -4 6 -10 -45 -58 -163 -153 -23 -19 -46 -35
-50 -35 -3 0 -14 -8 -24 -18 -25 -25 -72 -48 -81 -39 -5 4 -5 2 -2 -4 6 -11
-19 -29 -35 -26 -5 1 -8 -2 -8 -8 0 -11 -264 -144 -315 -159 -16 -5 -55 -19
-85 -30 -46 -18 -145 -44 -295 -77 -16 -3 -48 -7 -70 -8 -22 -1 -45 -5 -50 -8
-6 -4 -80 -9 -166 -12 -151 -6 -348 5 -419 24 -19 5 -62 14 -95 20 -33 6 -73
16 -90 20 -137 40 -244 75 -265 85 -14 7 -50 23 -80 36 -30 13 -64 32 -74 41
-10 10 -22 15 -27 13 -11 -8 -90 41 -82 50 5 4 3 5 -3 2 -11 -7 -136 67 -142
84 -2 5 -8 9 -14 9 -15 0 -58 37 -51 44 3 3 1 6 -6 6 -21 0 -72 41 -65 52 4 7
2 8 -4 4 -6 -4 -28 8 -48 26 -20 18 -42 37 -50 41 -8 5 -11 13 -8 19 4 6 3 8
-3 5 -14 -9 -136 119 -127 134 4 7 3 10 -4 5 -6 -3 -20 8 -32 25 -13 17 -32
40 -44 53 -36 37 -71 89 -70 103 1 7 -2 11 -6 8 -8 -5 -36 35 -75 107 -11 20
-39 70 -63 112 -24 42 -40 80 -37 86 3 5 2 10 -4 10 -21 0 -125 285 -138 376
-3 24 -10 44 -14 44 -5 0 -9 13 -9 30 0 16 -5 51 -10 77 -19 90 -26 306 -17
528 5 111 21 198 41 224 8 11 8 13 -1 7 -18 -10 -17 18 2 54 9 17 14 30 11 30
-6 0 23 121 32 134 4 6 16 38 27 71 11 33 22 62 25 65 3 3 12 24 18 47 7 23
19 49 28 57 8 8 14 18 14 21 -3 18 26 75 37 71 7 -3 10 1 7 9 -4 8 8 38 26 67
66 108 94 148 102 148 5 0 7 4 3 9 -3 5 0 13 6 16 6 4 19 20 29 37 10 16 35
50 56 76 39 47 244 254 280 282 66 53 94 71 94 64 0 -5 5 -1 11 9 12 21 99 86
154 116 22 11 58 32 80 46 22 14 49 29 60 34 11 5 54 24 95 44 83 38 150 62
164 59 5 -2 16 3 25 11 9 7 34 18 56 24 22 6 65 18 95 26 30 8 62 15 70 15 8
1 44 8 80 16 122 29 362 37 590 20z"/>
<path d="M2859 5026 c-2 -3 -22 -7 -44 -10 -264 -34 -392 -62 -535 -118 -100
-39 -131 -53 -224 -99 -43 -21 -83 -36 -90 -32 -6 3 -8 2 -3 -2 9 -11 -153
-116 -166 -108 -6 3 -7 1 -3 -5 3 -6 -17 -27 -48 -49 -29 -21 -83 -65 -120
-98 -37 -33 -72 -60 -79 -60 -7 0 -12 -4 -12 -10 0 -19 -16 -35 -27 -29 -6 4
-8 3 -5 -3 8 -13 -37 -56 -48 -46 -4 5 -5 3 -2 -3 3 -6 -15 -35 -41 -65 -27
-30 -75 -92 -107 -139 -32 -47 -62 -87 -65 -90 -4 -3 -31 -52 -61 -110 -30
-58 -57 -107 -60 -110 -7 -7 -45 -90 -54 -120 -4 -14 -12 -30 -16 -36 -5 -7
-16 -36 -23 -65 -8 -30 -20 -67 -27 -84 -6 -16 -13 -42 -15 -57 -2 -14 -10
-46 -18 -70 -8 -23 -17 -65 -20 -93 -13 -111 -19 -161 -22 -179 -9 -47 -5
-289 5 -369 6 -48 11 -104 11 -125 -1 -62 1 -73 10 -67 4 3 14 -27 20 -66 7
-39 18 -82 25 -96 7 -13 19 -51 26 -84 7 -32 17 -59 21 -59 4 0 5 -7 2 -15 -4
-8 -2 -15 4 -15 5 0 13 -12 17 -27 3 -15 15 -45 26 -67 10 -22 19 -46 19 -53
0 -7 5 -13 10 -13 6 0 10 -6 9 -13 -3 -26 1 -48 9 -43 5 3 16 -13 26 -34 10
-22 22 -40 27 -40 5 0 9 -4 9 -10 0 -9 39 -72 60 -97 6 -7 15 -24 22 -38 6
-14 15 -25 19 -25 4 0 17 -16 29 -35 12 -20 27 -41 33 -48 7 -7 32 -37 57 -67
24 -30 50 -59 57 -63 8 -5 11 -13 7 -18 -3 -5 -1 -8 3 -7 14 4 123 -105 116
-116 -3 -5 -2 -6 4 -3 5 4 19 -2 29 -11 10 -10 40 -34 66 -53 38 -29 45 -39
35 -50 -10 -11 -9 -11 5 0 14 10 20 9 37 -8 12 -12 25 -21 29 -21 5 0 17 -8
28 -18 10 -9 30 -23 44 -30 59 -30 100 -59 93 -66 -5 -4 -3 -6 2 -4 17 5 75
-24 68 -35 -3 -6 -1 -7 5 -3 6 3 28 -2 49 -13 65 -34 268 -110 293 -111 8 0
27 -6 42 -14 14 -8 46 -17 70 -21 24 -4 48 -12 55 -17 6 -5 49 -11 95 -14 46
-2 97 -7 113 -11 87 -19 333 -16 495 5 41 6 77 10 80 10 3 -1 12 2 20 5 19 8
176 48 215 55 17 3 40 12 53 20 12 8 31 12 42 9 11 -3 18 -2 16 2 -3 4 10 13
27 21 18 7 65 29 105 47 40 18 78 30 84 27 7 -4 8 -2 4 4 -4 7 -2 12 3 12 18
0 26 3 39 17 8 7 18 11 23 7 5 -3 8 0 7 8 -2 8 5 12 21 10 14 -1 22 1 18 4 -6
6 84 74 98 74 3 0 34 23 69 50 35 28 69 50 75 50 7 0 9 5 6 10 -3 5 -2 10 3
10 5 0 25 16 45 35 21 20 37 34 37 31 0 -3 24 20 54 50 31 32 57 51 61 45 3
-6 11 -11 18 -11 6 0 3 6 -7 13 -16 12 -15 16 22 54 22 23 42 41 44 40 2 -1 2
0 1 2 -2 3 111 155 127 171 8 8 29 43 37 60 3 8 16 29 27 45 28 40 96 175 125
247 13 32 27 58 30 58 4 0 8 6 8 13 0 15 53 178 62 192 4 6 8 26 10 45 1 19 6
49 11 65 6 17 17 80 27 140 18 121 29 495 15 504 -11 8 -34 180 -25 194 3 5 1
7 -4 4 -10 -6 -35 93 -35 136 1 9 -4 17 -10 17 -5 0 -8 6 -5 14 3 7 2 17 -3
22 -4 5 -13 27 -19 49 -7 22 -17 50 -22 63 -5 12 -13 32 -17 45 -5 12 -30 66
-57 119 -27 53 -48 104 -48 112 0 9 -2 14 -5 11 -5 -5 -39 44 -62 90 -8 16
-22 37 -30 46 -8 9 -26 33 -40 53 -14 20 -33 46 -42 58 -10 11 -15 25 -12 30
3 4 2 7 -3 6 -9 -3 -103 94 -104 108 0 5 -39 43 -85 84 -47 41 -98 87 -115
102 -16 15 -49 41 -72 57 -23 16 -52 39 -64 50 -12 12 -27 21 -32 21 -5 0 -16
6 -24 14 -7 8 -37 26 -65 41 -28 14 -56 33 -63 41 -6 8 -16 14 -21 14 -6 0
-51 20 -101 44 -137 66 -176 82 -239 96 -32 7 -55 17 -52 22 3 4 -7 8 -21 8
-15 0 -61 9 -103 19 -43 11 -124 25 -182 31 -58 7 -115 16 -128 21 -23 9 -245
13 -253 5z m372 -46 c449 -61 841 -255 1163 -574 174 -174 340 -406 423 -594
14 -31 33 -75 43 -97 20 -46 73 -213 94 -300 36 -145 59 -376 52 -510 -26
-509 -209 -949 -548 -1318 -310 -338 -750 -570 -1203 -634 -242 -34 -450 -26
-710 28 -509 104 -988 441 -1289 906 -51 79 -166 302 -166 322 0 7 -7 25 -15
39 -22 41 -73 215 -95 322 -56 284 -48 626 21 880 34 128 61 215 69 225 4 6
11 21 15 35 10 35 94 203 144 289 67 113 186 266 298 381 451 462 1083 685
1704 600z"/>
<path d="M3432 4788 c-19 -19 -14 -36 13 -54 24 -16 25 -18 9 -35 -8 -9 -23
-31 -32 -47 -9 -16 -33 -54 -52 -86 l-35 -56 -41 6 c-48 7 -97 -14 -115 -49
-7 -12 -26 -44 -44 -72 -28 -43 -148 -232 -279 -439 -35 -54 -38 -57 -55 -42
-27 25 -93 21 -117 -6 -61 -68 -70 -124 -29 -163 l26 -23 -57 -54 c-31 -29
-59 -55 -63 -58 -30 -21 -9 -67 66 -147 53 -56 71 -49 207 80 28 26 53 47 56
47 3 0 13 -7 23 -15 18 -13 18 -17 -8 -116 -34 -134 -32 -148 27 -177 54 -25
126 -37 146 -24 17 11 52 109 52 144 0 28 22 39 35 18 3 -5 25 -10 49 -10 46
0 70 18 100 77 26 52 21 87 -19 120 l-34 28 37 57 c20 31 42 65 48 75 11 17
13 17 35 -3 27 -24 80 -44 117 -44 91 0 281 -259 311 -424 37 -199 -7 -381
-131 -548 -62 -85 -110 -119 -278 -200 -74 -36 -201 -98 -282 -137 l-147 -72
-123 60 c-120 58 -499 239 -728 348 -63 30 -155 69 -205 86 l-90 31 -352 4
-353 3 0 -40 0 -40 86 -3 87 -3 111 -217 c61 -120 165 -322 230 -450 163 -319
143 -291 301 -413 17 -13 94 -74 173 -137 79 -62 161 -126 182 -143 21 -16
154 -122 296 -235 306 -243 291 -233 306 -228 7 3 -14 24 -47 48 -71 52 -100
76 -138 113 -16 15 -31 27 -33 27 -8 0 -139 103 -160 127 -12 13 -26 23 -33
23 -6 0 -11 4 -11 9 0 5 -8 12 -17 15 -10 4 -37 23 -59 45 -23 21 -49 41 -58
44 -9 4 -15 12 -14 18 2 6 -5 13 -16 14 -20 4 -57 39 -50 49 2 3 1 4 -3 1 -9
-7 -46 18 -124 84 -36 31 -76 63 -89 71 -12 8 -32 23 -44 32 -11 10 -58 47
-103 83 -78 62 -93 80 -127 152 -9 17 -20 35 -26 38 -6 4 -8 10 -5 15 3 5 1
11 -3 14 -12 7 -85 157 -85 174 0 6 -4 12 -8 12 -13 0 -61 99 -54 111 4 5 2 8
-4 7 -9 -3 -47 63 -113 195 -11 22 -17 45 -14 53 3 7 0 13 -6 11 -6 -1 -39 54
-74 122 -35 69 -70 128 -76 133 -7 4 -46 8 -85 8 -65 0 -73 2 -73 19 0 18 12
19 311 20 273 0 320 -2 390 -19 45 -10 87 -24 95 -31 8 -6 14 -8 14 -4 0 4 7
1 17 -6 9 -8 18 -13 19 -12 5 4 37 -7 54 -18 8 -5 22 -12 30 -14 16 -6 111
-51 335 -157 17 -8 39 -20 50 -26 11 -6 56 -28 100 -47 113 -51 129 -59 136
-68 3 -5 12 -9 20 -11 8 -1 59 -24 114 -50 55 -26 116 -50 135 -53 19 -4 39
-11 43 -17 6 -7 7 -5 4 5 -4 12 10 23 54 43 32 14 63 26 69 26 5 0 10 5 10 10
0 6 4 10 9 10 11 0 165 70 244 111 31 17 63 27 70 23 6 -4 9 -4 5 1 -4 4 16
19 44 33 29 13 66 37 82 53 17 16 60 43 97 60 92 44 142 124 185 300 23 89 25
118 21 204 -7 114 -40 236 -88 316 -16 27 -29 52 -29 54 0 9 -37 52 -102 117
-59 61 -65 69 -48 78 10 5 33 29 51 52 26 32 34 51 34 85 0 24 3 43 7 43 14 0
127 -92 180 -148 50 -51 158 -201 158 -217 0 -4 13 -32 29 -65 35 -71 67 -193
83 -317 10 -79 9 -108 -5 -199 -21 -128 -28 -144 -67 -144 -49 0 -283 -93
-307 -122 -10 -11 -8 -14 8 -14 10 0 19 3 19 7 0 11 61 30 73 22 6 -4 7 -1 2
7 -6 10 -4 12 9 7 11 -5 15 -3 10 5 -5 7 0 9 14 6 12 -4 20 -2 17 3 -7 10 48
34 128 55 33 8 66 22 74 30 8 8 29 14 47 14 l33 0 12 69 c16 97 14 271 -4 364
-56 294 -223 541 -478 708 -49 32 -102 70 -118 83 -15 13 -34 26 -40 28 -9 3
-5 20 14 58 15 30 27 65 27 78 0 25 -29 82 -42 82 -16 0 -6 21 52 109 33 50
60 95 60 101 0 13 17 13 25 0 11 -18 44 -11 56 12 11 20 9 25 -17 46 -43 35
-304 192 -318 192 -7 0 -17 -5 -24 -12z m82 -43 c27 -19 55 -35 63 -35 7 0 13
-4 13 -8 0 -5 18 -17 40 -27 22 -10 40 -22 40 -27 0 -4 3 -7 8 -6 16 5 92 -53
92 -71 0 -14 -6 -14 -31 0 -28 14 -38 4 -100 -97 -28 -46 -54 -82 -58 -80 -15
10 -4 -52 16 -90 20 -37 21 -45 9 -85 -7 -24 -18 -44 -24 -44 -6 0 -14 -4 -19
-9 -5 -5 -3 -6 5 -2 9 6 11 2 7 -16 -7 -27 38 -69 169 -156 114 -76 178 -133
172 -155 -3 -14 -1 -16 9 -7 10 8 22 -1 52 -37 22 -27 50 -64 63 -83 13 -19
27 -37 30 -40 13 -12 50 -89 50 -104 0 -10 5 -14 10 -11 9 6 11 1 14 -37 1 -7
4 -15 8 -18 12 -10 49 -132 63 -213 22 -123 17 -380 -7 -345 -5 8 -6 3 -2 -13
6 -28 -4 -42 -23 -31 -8 5 -8 21 1 60 6 29 14 51 16 48 7 -6 4 206 -3 224 -13
36 -28 108 -30 142 -1 21 -5 38 -8 38 -4 0 -14 21 -23 48 -10 26 -26 63 -37
83 -10 20 -19 44 -19 53 0 9 -7 19 -15 22 -8 4 -15 10 -15 15 0 6 -10 23 -21
38 -12 16 -18 34 -14 40 3 6 3 10 -2 9 -5 -2 -44 34 -88 80 -93 96 -143 138
-188 157 -25 10 -34 11 -35 2 -7 -81 -34 -153 -54 -141 -6 4 -8 3 -5 -3 4 -6
-8 -22 -25 -37 l-32 -26 72 -73 c40 -40 72 -78 72 -85 0 -6 4 -12 8 -12 15 0
52 -78 46 -96 -5 -15 -4 -16 4 -5 9 12 12 11 20 -10 5 -13 17 -42 26 -64 57
-144 54 -339 -7 -505 -32 -86 -73 -153 -107 -175 -19 -13 -37 -21 -39 -19 -8
7 42 64 51 58 7 -5 8 -2 4 5 -5 7 -1 20 7 29 7 9 17 26 21 37 6 16 9 17 17 5
8 -12 10 -9 5 9 -3 14 5 48 19 81 47 112 50 331 5 445 -11 28 -21 57 -22 65
-2 8 -6 19 -11 25 -4 5 -26 39 -50 75 -50 77 -144 173 -184 187 -15 6 -50 16
-77 22 -27 6 -61 21 -76 31 -34 24 -42 25 -58 3 -6 -10 -23 -34 -37 -53 -13
-19 -30 -47 -36 -62 -6 -16 -16 -28 -22 -28 -5 0 -3 -8 6 -18 10 -10 14 -22
10 -27 -5 -4 -3 -5 3 -2 17 10 54 -22 54 -45 0 -28 -49 -110 -61 -103 -5 4 -9
2 -9 -4 0 -5 -15 -8 -32 -5 -91 12 -83 18 -108 -84 -15 -57 -43 -86 -78 -77
-56 13 -111 38 -116 52 -4 8 6 64 21 124 25 103 26 110 9 128 -38 42 -75 27
-168 -69 -21 -22 -38 -37 -38 -34 0 3 -7 -2 -16 -10 -8 -9 -22 -16 -29 -16
-16 0 -84 70 -103 107 -13 24 -11 28 47 87 65 65 70 79 45 107 -43 48 7 159
71 159 19 0 40 -6 47 -13 27 -26 46 -12 103 79 87 137 99 154 107 154 4 0 7 3
6 8 -3 9 15 43 60 110 26 40 37 50 44 40 6 -9 8 -7 3 8 -4 14 5 37 27 70 19
27 40 62 48 77 21 42 62 60 106 48 41 -11 59 1 94 66 11 21 38 66 60 101 39
62 39 63 20 80 -20 16 -27 42 -12 42 4 0 29 -16 56 -35z"/>
<path d="M3497 4668 c-13 -18 -32 -45 -42 -60 -9 -15 -22 -25 -28 -21 -6 3 -7
1 -3 -5 8 -13 -28 -75 -38 -65 -4 4 -4 -1 0 -11 5 -13 4 -17 -3 -13 -16 10 -4
-34 15 -55 8 -10 19 -18 24 -18 5 0 27 -11 49 -25 51 -33 70 -27 104 31 15 26
31 42 37 38 7 -4 8 -2 4 4 -9 15 18 55 29 44 4 -4 6 0 2 9 -3 9 2 25 12 36 20
21 20 46 -1 67 -11 11 -85 53 -130 74 -3 2 -17 -12 -31 -30z m128 -121 c-19
-29 -48 -76 -66 -104 -17 -29 -32 -53 -34 -53 -12 0 -125 74 -125 82 0 6 29
55 65 109 l64 99 65 -41 65 -41 -34 -51z"/>
<path d="M3248 4459 c-9 -5 -27 -27 -39 -49 -13 -22 -26 -40 -31 -40 -4 0 -19
-25 -34 -55 -15 -30 -31 -52 -35 -49 -5 3 -9 -2 -9 -11 0 -14 -20 -48 -131
-218 -21 -32 -41 -66 -44 -77 -4 -11 -11 -20 -16 -20 -5 0 -9 -6 -9 -14 0 -7
-7 -19 -15 -26 -30 -25 -16 -48 58 -96 39 -26 105 -69 146 -96 102 -66 113
-68 143 -24 14 20 28 33 32 29 4 -4 4 0 0 10 -3 10 -1 17 5 17 6 0 11 7 11 15
0 8 4 15 9 15 19 0 36 69 36 145 0 74 2 84 33 127 28 40 41 50 90 64 81 24
139 92 133 154 -4 35 -15 46 -88 86 -34 20 -63 40 -63 45 0 5 -4 9 -9 9 -6 0
-36 16 -68 35 -61 37 -77 41 -105 24z m72 -31 c19 -12 80 -50 135 -84 97 -59
100 -62 99 -96 -2 -52 -45 -104 -93 -112 -53 -8 -114 -56 -140 -110 -18 -36
-22 -59 -20 -119 3 -74 3 -75 -44 -145 -26 -39 -47 -75 -47 -81 0 -18 -19 -13
-63 18 -23 15 -73 47 -112 71 -90 56 -145 92 -145 96 0 2 32 54 72 116 39 62
103 163 141 223 38 61 78 122 88 137 11 15 19 30 19 33 0 13 53 75 64 75 6 0
27 -10 46 -22z"/>
<path d="M3445 4076 c-16 -7 -45 -30 -62 -51 -28 -32 -33 -44 -33 -89 0 -43 6
-61 31 -95 101 -141 310 -52 279 118 -4 22 -6 41 -4 41 2 0 -8 13 -22 29 -50
57 -125 75 -189 47z m119 -20 c49 -20 76 -64 76 -123 0 -60 -25 -104 -73 -126
-48 -23 -88 -21 -127 6 -74 50 -88 137 -32 205 41 51 94 64 156 38z"/>
<path d="M2718 3863 c-18 -21 -38 -58 -38 -70 0 -4 21 -21 45 -38 25 -16 45
-34 45 -38 0 -5 5 -5 10 -2 6 3 10 1 10 -4 0 -6 7 -11 16 -11 8 0 12 -4 9 -10
-3 -5 0 -7 8 -4 8 3 20 -2 27 -11 7 -8 19 -15 26 -15 8 0 14 -3 14 -7 0 -5 34
-28 75 -52 41 -24 72 -48 69 -52 -3 -5 -2 -9 3 -8 21 4 34 -2 27 -13 -4 -7 -3
-8 5 -4 6 4 38 -9 70 -28 70 -43 83 -44 110 -10 36 46 28 69 -40 114 -33 22
-62 40 -64 40 -5 0 -135 85 -152 100 -7 5 -16 10 -21 10 -5 0 -33 17 -63 38
-75 52 -145 92 -162 92 -8 0 -21 -8 -29 -17z m143 -71 c125 -79 204 -128 314
-196 44 -27 81 -50 83 -51 6 -5 -34 -65 -43 -65 -11 0 -190 107 -325 195 -52
34 -116 74 -142 89 -27 15 -48 30 -48 33 0 13 35 63 45 63 5 0 58 -30 116 -68z"/>
<path d="M2707 3674 c-15 -14 -32 -22 -39 -18 -6 4 -8 3 -5 -3 3 -5 -7 -22
-24 -37 -32 -30 -37 -57 -14 -76 8 -7 12 -17 8 -23 -3 -5 -1 -7 4 -4 6 4 16 0
23 -8 7 -8 20 -15 30 -15 10 0 23 7 30 15 7 8 17 12 23 8 5 -3 7 -2 4 4 -4 6
16 31 43 55 64 59 64 66 -1 106 -46 28 -48 27 -82 -4z m78 -16 c19 -13 34 -25
32 -28 -1 -3 -30 -32 -65 -64 l-63 -60 -32 33 -32 32 55 53 c30 30 58 54 63
55 4 0 23 -9 42 -21z"/>
<path d="M2988 3533 c-10 -2 -19 -11 -19 -19 -1 -8 -2 -17 -3 -21 -1 -5 -8
-34 -16 -66 -9 -37 -16 -53 -22 -45 -13 22 -9 -1 7 -31 16 -33 33 -41 80 -41
36 0 55 20 55 57 0 10 7 31 16 48 21 41 11 68 -36 99 -22 14 -41 25 -42 25 -2
-1 -11 -3 -20 -6z m53 -35 c24 -15 37 -28 34 -37 -3 -8 -13 -42 -21 -76 l-16
-62 -39 10 c-25 6 -39 15 -39 26 0 20 32 161 37 161 2 0 22 -10 44 -22z"/>
<path d="M4418 2870 c-97 -3 -180 -8 -184 -12 -9 -10 -2 -10 148 -12 65 0 118
3 118 7 0 5 5 5 11 2 6 -4 89 -7 185 -7 143 0 174 -2 174 -14 0 -15 -21 -17
-177 -14 -45 1 -91 -4 -103 -10 -20 -11 -80 -120 -80 -146 0 -7 -7 -25 -15
-41 -8 -15 -35 -82 -60 -148 -25 -66 -57 -145 -70 -176 -14 -31 -25 -62 -25
-68 0 -6 -4 -11 -10 -11 -5 0 -10 -6 -10 -12 0 -16 -83 -236 -105 -279 -26
-49 -145 -161 -164 -154 -8 3 -12 3 -9 -1 8 -8 -46 -54 -179 -153 -29 -21 -49
-41 -46 -45 4 -3 1 -6 -6 -6 -7 0 -19 -7 -28 -15 -8 -8 -19 -13 -24 -10 -5 4
-9 -1 -9 -9 0 -18 -15 -28 -44 -30 -11 -1 -20 -7 -19 -13 2 -7 -14 -25 -34
-40 -21 -15 -47 -35 -58 -44 -88 -72 -135 -109 -135 -105 0 2 -15 -10 -33 -28
-18 -17 -62 -53 -98 -81 -35 -27 -73 -58 -84 -68 -10 -10 -25 -15 -33 -12 -7
2 -10 0 -7 -5 6 -10 -31 -49 -47 -50 -3 0 -19 -13 -35 -28 -15 -15 -39 -35
-52 -45 -14 -9 -22 -19 -19 -22 7 -7 72 32 103 62 18 17 214 175 374 302 31
25 58 47 61 51 3 4 21 17 41 31 20 13 53 38 75 56 21 17 75 60 119 94 44 34
112 88 150 119 39 30 88 69 110 84 22 16 63 52 91 80 48 49 56 65 174 361 68
171 148 369 177 440 29 72 52 135 53 141 0 8 47 10 160 7 l160 -4 0 44 0 44
-152 -1 c-84 -1 -233 -3 -330 -6z"/>
<path d="M1403 2803 c5 -4 99 -11 210 -14 234 -7 260 -13 482 -120 371 -177
758 -359 765 -359 4 0 10 -7 14 -15 4 -10 -1 -15 -15 -15 -12 0 -42 -11 -68
-24 -25 -13 -95 -47 -154 -75 l-109 -51 -26 19 c-15 10 -43 28 -62 38 -19 11
-75 44 -125 73 -49 28 -180 104 -290 168 -110 63 -227 131 -260 150 -33 19
-78 45 -100 57 -22 12 -80 46 -130 75 -105 61 -136 75 -129 57 2 -7 57 -41
122 -76 64 -36 123 -71 130 -78 7 -7 19 -13 26 -13 7 0 23 -9 36 -20 13 -11
27 -20 31 -20 5 0 40 -20 79 -45 39 -25 76 -45 84 -45 7 0 21 -9 31 -20 10
-11 20 -18 23 -15 2 2 23 -8 46 -24 22 -15 68 -42 101 -61 33 -18 62 -36 65
-40 3 -3 26 -15 52 -26 25 -10 44 -22 42 -26 -3 -5 -1 -8 3 -8 10 0 183 -95
225 -124 28 -18 28 -18 115 24 49 24 94 43 101 43 6 0 12 5 12 10 0 5 9 7 20
4 11 -3 18 -2 15 2 -4 8 74 51 92 51 17 0 34 26 27 43 -3 9 -67 46 -142 83
-76 36 -139 70 -140 75 -2 5 -8 7 -13 4 -5 -4 -60 19 -123 49 -63 31 -120 56
-125 56 -6 0 -11 4 -11 8 0 6 -47 30 -70 36 -31 8 -68 31 -63 39 3 5 2 7 -4 4
-5 -3 -37 7 -70 23 -86 42 -147 68 -228 98 -65 23 -86 25 -285 30 -118 2 -211
0 -207 -5z"/>
<path d="M4145 2803 c-58 -8 -171 -45 -235 -78 -88 -44 -158 -75 -170 -75 -5
0 -10 -4 -10 -8 0 -5 -19 -15 -42 -22 -24 -8 -54 -22 -67 -32 -13 -10 -32 -18
-42 -18 -9 0 -19 -3 -21 -7 -2 -7 -70 -43 -88 -48 -11 -3 -302 -140 -352 -166
-10 -5 -24 -9 -32 -9 -8 0 -16 -4 -18 -8 -3 -9 -212 -112 -270 -132 -21 -8
-38 -18 -38 -23 0 -5 -9 -7 -20 -4 -11 3 -18 1 -14 -4 3 -5 -2 -9 -10 -9 -9 0
-16 -4 -16 -10 0 -5 -5 -10 -11 -10 -11 0 -73 -29 -366 -172 -79 -38 -148 -66
-155 -62 -6 4 -8 3 -5 -3 4 -6 -8 -16 -26 -23 -68 -27 -156 -72 -167 -85 -12
-14 -5 -55 9 -55 11 0 78 -52 123 -95 20 -19 41 -35 46 -35 6 0 24 -12 40 -27
17 -16 42 -38 56 -50 l26 -21 54 28 c30 15 67 37 82 49 14 11 32 21 39 21 7 0
15 6 18 13 3 6 22 21 43 32 22 11 41 22 44 25 3 3 43 30 90 59 47 30 104 67
127 83 23 15 46 28 51 28 6 0 12 4 14 8 6 16 229 152 239 146 5 -3 8 -1 7 4
-3 11 50 53 92 74 14 7 27 15 30 18 14 15 409 262 413 258 1 -2 21 12 44 30
22 17 44 32 47 32 4 0 12 5 19 10 32 27 153 103 165 103 6 0 12 3 12 7 0 8
120 85 132 85 5 0 12 5 16 11 8 12 116 84 126 84 11 0 87 53 82 57 -9 9 -80
-29 -203 -108 -70 -45 -159 -102 -198 -127 -82 -53 -92 -59 -296 -188 -85 -55
-163 -103 -172 -109 -28 -17 -447 -286 -569 -364 -64 -42 -167 -107 -228 -146
-61 -38 -116 -75 -123 -80 -7 -6 -50 -34 -97 -64 -99 -62 -74 -69 -247 67
-169 134 -160 125 -143 130 26 8 218 97 395 182 94 45 213 103 265 127 52 25
142 68 200 95 58 28 157 75 220 105 63 30 156 74 205 98 237 114 376 180 435
207 36 17 127 59 202 94 101 47 163 69 240 84 56 12 105 23 107 26 5 5 -60 3
-104 -3z"/>
<path d="M4270 2732 c-36 -14 -74 -34 -85 -44 -26 -25 -106 -71 -122 -71 -7 0
-10 -3 -8 -7 2 -4 -24 -24 -58 -46 -33 -21 -62 -37 -62 -34 -1 3 -9 -3 -19
-13 -18 -18 -122 -87 -131 -87 -3 0 -34 -19 -69 -42 -35 -24 -84 -55 -108 -70
-58 -37 -78 -50 -113 -73 -49 -33 -76 -45 -86 -39 -5 3 -8 0 -7 -8 2 -7 -3
-12 -10 -10 -8 1 -11 -1 -9 -5 3 -5 -45 -39 -105 -78 -61 -38 -160 -103 -221
-142 -61 -40 -117 -73 -123 -73 -7 0 -14 -4 -16 -9 -1 -5 -41 -33 -88 -62 -47
-29 -86 -57 -88 -61 -2 -5 -7 -8 -12 -8 -9 0 -191 -113 -236 -147 -17 -13 -35
-23 -40 -23 -14 -1 -117 -83 -121 -97 -6 -16 56 -74 116 -109 28 -17 35 -26
33 -45 -1 -4 6 -6 16 -5 9 0 16 -5 14 -12 -1 -8 2 -11 8 -7 6 3 27 -7 47 -24
45 -37 62 -38 97 -6 14 13 26 22 26 20 0 -6 37 24 70 58 15 15 30 27 34 27 4
0 22 15 40 33 18 17 57 52 86 76 29 25 58 51 66 58 7 7 16 13 21 13 5 0 16 8
24 18 23 25 169 156 184 164 7 4 37 30 66 58 30 27 57 50 61 50 3 0 20 14 36
30 17 17 33 30 35 30 3 0 24 18 46 40 22 22 45 40 51 40 5 0 10 7 10 15 0 8 5
15 10 15 6 0 29 17 53 39 23 21 61 52 84 68 23 17 39 34 35 38 -4 5 1 5 10 2
11 -4 17 -2 15 6 -1 7 4 11 11 9 8 -1 11 2 8 7 -3 5 6 17 21 26 15 10 37 28
50 39 12 12 28 26 35 32 59 47 154 130 159 137 4 5 12 6 19 2 8 -5 11 -4 6 3
-3 6 1 17 10 24 9 7 42 37 74 66 31 28 65 52 74 52 9 0 15 4 12 8 -3 5 8 20
24 35 19 19 30 23 33 15 4 -10 6 -9 6 1 1 8 22 34 48 58 81 74 29 47 -74 -39
-112 -93 -216 -181 -223 -188 -15 -15 -102 -90 -145 -125 -27 -22 -72 -60
-100 -84 -27 -24 -61 -53 -75 -65 -198 -170 -528 -453 -536 -461 -6 -5 -49
-41 -94 -80 -46 -38 -104 -88 -130 -110 -25 -22 -72 -62 -105 -90 -32 -27 -94
-81 -137 -119 l-79 -69 -27 24 c-14 13 -31 29 -37 35 -5 6 -53 44 -105 84 -52
39 -96 75 -98 80 -1 4 35 31 80 60 46 29 133 84 193 123 115 73 129 82 502
323 249 160 311 200 413 263 36 23 97 62 135 86 39 25 86 54 105 65 19 11 89
56 155 100 66 44 130 85 142 92 60 34 263 161 263 164 0 5 4 7 -70 -24z"/>
<path d="M4410 2714 c-23 -21 -44 -33 -51 -28 -7 4 -9 3 -6 -3 4 -6 -16 -30
-45 -54 -28 -24 -57 -49 -63 -56 -7 -7 -15 -10 -19 -8 -3 3 -4 2 -1 -1 2 -4
-26 -31 -63 -61 -37 -29 -87 -72 -112 -94 -79 -72 -94 -84 -150 -129 -109 -89
-213 -180 -218 -192 -2 -5 -10 -8 -17 -8 -7 0 -16 -7 -19 -16 -3 -9 -11 -12
-18 -8 -7 4 -10 4 -6 -1 4 -4 -12 -23 -35 -42 -44 -37 -54 -46 -99 -88 -15
-14 -32 -25 -38 -25 -5 0 -10 -4 -10 -10 0 -5 -10 -10 -22 -10 -17 0 -19 -3
-10 -9 11 -6 10 -10 -5 -16 -10 -5 -22 -7 -26 -6 -5 1 -6 -3 -3 -7 3 -5 -18
-29 -47 -53 -67 -55 -94 -79 -124 -106 -13 -13 -26 -23 -29 -23 -3 0 -11 -6
-18 -12 -7 -7 -44 -40 -81 -73 -37 -33 -78 -69 -90 -81 -13 -11 -44 -38 -71
-60 -27 -21 -58 -48 -70 -59 -52 -49 -130 -112 -138 -113 -5 0 -15 -14 -23
-30 -14 -28 -13 -31 12 -56 14 -14 28 -26 31 -26 11 0 93 -68 89 -74 -3 -3 -2
-4 1 -1 4 2 28 -13 53 -33 60 -50 93 -72 107 -72 6 0 28 13 49 30 20 16 42 27
48 23 6 -3 7 -1 3 5 -4 7 -3 12 3 12 5 0 25 15 44 32 46 45 77 69 77 62 0 -3
12 9 26 26 15 17 29 29 31 26 3 -2 26 16 51 40 26 25 64 54 85 66 20 12 37 26
37 30 0 5 5 6 12 2 7 -4 8 -3 4 4 -7 12 27 35 38 25 3 -3 6 1 6 10 0 10 6 17
14 17 8 0 17 7 20 16 3 8 11 12 17 8 8 -4 9 -3 5 4 -4 7 -3 12 1 12 5 0 22 12
38 27 16 16 43 37 60 49 17 11 43 32 59 45 15 13 41 32 59 42 17 9 28 17 23
17 -5 0 16 18 47 41 32 22 62 37 69 33 7 -4 8 -3 4 5 -8 12 17 43 28 36 3 -3
4 -2 1 1 -2 4 22 26 53 50 31 24 62 48 68 53 7 5 15 8 18 5 3 -2 4 -1 2 2 -2
3 13 21 35 41 45 40 73 84 99 151 10 26 35 90 55 142 20 52 46 115 57 140 12
25 21 48 20 53 -1 4 3 7 9 7 6 0 9 6 6 13 -2 6 1 23 8 37 8 14 25 57 40 95 15
39 38 95 50 125 13 30 27 69 30 85 7 28 6 29 -8 10 -8 -11 -28 -54 -45 -95
-16 -41 -76 -190 -132 -330 -113 -282 -150 -365 -177 -396 -10 -12 -94 -81
-188 -154 -388 -305 -826 -654 -904 -722 -24 -21 -49 -38 -55 -38 -6 0 -65 44
-131 96 -66 53 -129 103 -140 110 -19 14 -19 15 15 45 19 17 53 45 74 63 22
17 63 52 90 77 28 25 119 103 201 174 83 70 180 154 217 187 37 32 100 86 140
120 40 33 100 84 133 113 33 29 112 97 175 150 108 91 279 237 304 260 6 6 38
32 71 60 33 27 62 52 65 55 3 3 67 59 143 124 75 65 137 120 137 122 0 13 -25
-1 -60 -32z"/>
<path d="M1475 2657 c33 -25 38 -28 127 -78 73 -41 438 -252 516 -298 29 -17
55 -31 58 -31 2 0 44 -24 92 -54 48 -30 108 -64 135 -77 46 -23 60 -39 33 -39
-13 0 -93 -37 -390 -179 l-150 -72 -21 23 c-31 34 -49 68 -200 363 -232 454
-238 464 -250 445 -4 -6 -1 -19 7 -28 8 -9 23 -35 33 -57 11 -22 29 -53 39
-69 11 -16 15 -26 8 -22 -7 4 2 -14 19 -39 26 -39 29 -49 18 -57 -12 -8 -11
-9 1 -5 11 3 29 -26 64 -97 27 -56 56 -109 64 -118 8 -10 12 -18 8 -18 -3 0 0
-10 9 -23 8 -13 12 -27 8 -30 -3 -4 -2 -7 4 -7 6 0 16 -12 22 -27 24 -59 97
-184 124 -213 16 -16 37 -30 48 -30 10 0 50 15 89 34 39 19 67 29 63 23 -3 -7
2 -5 13 4 10 9 61 36 113 60 166 77 275 134 278 145 4 11 -31 56 -41 55 -21
-3 -26 0 -20 11 4 6 3 8 -3 5 -6 -4 -16 0 -23 8 -7 8 -17 15 -23 15 -6 0 -51
24 -101 53 -50 28 -103 58 -118 66 -15 8 -25 18 -22 22 3 5 -2 6 -10 3 -9 -3
-16 -1 -16 5 0 6 -7 11 -16 11 -9 0 -12 5 -8 12 4 7 3 8 -4 4 -15 -9 -73 24
-65 37 4 6 1 7 -6 3 -7 -5 -30 4 -54 20 -52 35 -156 93 -179 101 -10 3 -18 9
-18 14 0 5 -6 9 -13 9 -7 0 -28 11 -47 23 -66 45 -201 117 -217 117 -4 0 5
-11 22 -23z"/>
<path d="M5012 3310 c0 -14 2 -19 5 -12 2 6 2 18 0 25 -3 6 -5 1 -5 -13z"/>
<path d="M710 2270 c0 -5 7 -10 15 -10 8 0 15 5 15 10 0 6 -7 10 -15 10 -8 0
-15 -4 -15 -10z"/>
<path d="M545 2100 c3 -5 14 -10 23 -10 15 0 15 2 2 10 -20 13 -33 13 -25 0z"/>
<path d="M920 1610 c0 -5 5 -10 11 -10 5 0 7 5 4 10 -3 6 -8 10 -11 10 -2 0
-4 -4 -4 -10z"/>
<path d="M4769 1585 c-50 -37 -78 -73 -91 -117 -22 -75 39 -136 113 -113 13 4
45 23 72 42 52 37 77 37 77 2 0 -27 -73 -99 -100 -99 -24 0 -23 1 -7 -38 12
-29 14 -30 42 -18 78 33 142 121 131 181 -16 84 -81 97 -174 35 -55 -37 -92
-45 -92 -18 0 30 60 97 88 98 15 0 15 12 0 45 -14 31 -16 31 -59 0z m41 -17
c0 -15 -67 -61 -73 -50 -3 4 1 13 9 20 8 7 14 9 14 5 0 -4 7 3 16 15 17 24 34
29 34 10z m-76 -86 c-13 -9 -16 -50 -3 -57 5 -4 7 -10 4 -15 -13 -21 68 1 108
29 41 30 115 52 102 31 -4 -6 0 -10 8 -10 7 0 19 -11 25 -25 9 -20 9 -33 -3
-60 -7 -19 -19 -35 -26 -35 -7 0 -9 -3 -6 -7 9 -8 -53 -64 -64 -57 -5 3 -9 0
-9 -5 0 -6 -5 -11 -11 -11 -22 0 -2 24 29 34 17 6 32 16 32 21 1 6 10 20 20
33 24 27 26 59 3 84 -23 25 -44 23 -88 -12 -21 -16 -42 -31 -46 -31 -5 -1 -13
-2 -18 -3 -5 0 -13 -4 -17 -8 -15 -16 -43 -7 -62 20 -18 25 -19 31 -6 67 7 22
14 42 14 45 0 2 6 -2 12 -8 9 -9 9 -15 2 -20z"/>
<path d="M1245 1432 c-11 -2 -30 -13 -42 -25 -33 -29 -29 -77 10 -147 30 -55
31 -60 15 -76 -15 -15 -18 -15 -42 2 -19 15 -53 67 -72 112 -3 6 -54 -22 -54
-29 0 -14 24 -63 42 -88 53 -70 140 -93 187 -50 33 31 25 99 -16 160 -32 47
-31 79 4 79 22 0 83 -67 83 -91 0 -23 3 -23 40 -4 l30 15 -31 50 c-44 72 -96
103 -154 92z m65 -33 c0 -5 4 -8 9 -5 4 3 16 -3 26 -14 10 -11 14 -20 9 -20
-5 0 2 -7 14 -16 12 -8 22 -25 21 -37 0 -21 -1 -21 -12 -3 -28 45 -64 76 -94
82 -26 5 -33 2 -44 -17 -19 -36 -18 -62 3 -77 25 -18 48 -65 48 -98 0 -39 -27
-64 -67 -64 -27 0 -44 10 -83 48 -46 45 -66 92 -40 92 6 0 10 -7 10 -16 0 -8
6 -21 13 -28 6 -8 19 -23 27 -35 8 -11 29 -26 48 -32 29 -9 35 -8 48 8 14 18
17 96 2 87 -10 -6 -48 70 -48 97 0 36 28 59 72 59 21 0 38 -5 38 -11z"/>
<path d="M4605 1365 c-5 -2 -22 -6 -37 -9 -34 -8 -94 -59 -114 -97 -21 -41
-18 -127 6 -166 10 -18 37 -41 59 -53 106 -54 239 10 258 123 5 34 5 35 -28
33 -28 -1 -34 -6 -41 -33 -15 -58 -105 -95 -148 -60 -45 35 -62 95 -40 137 13
24 72 60 98 60 24 0 37 56 14 65 -7 3 -14 5 -15 4 -1 0 -6 -2 -12 -4z m15 -29
c0 -2 -20 -14 -45 -26 -64 -31 -89 -69 -83 -129 3 -29 13 -57 24 -68 24 -26
77 -53 102 -53 28 0 101 56 107 83 4 13 13 24 21 24 17 0 17 -2 0 -35 -35 -67
-118 -109 -180 -90 -74 23 -121 107 -102 182 7 27 59 87 91 104 19 11 65 16
65 8z"/>
<path d="M1465 1194 c-119 -41 -151 -195 -58 -280 85 -78 221 -63 269 28 43
81 11 185 -69 232 -54 31 -94 37 -142 20z m132 -40 c51 -34 73 -72 75 -127 1
-58 -23 -100 -69 -122 -122 -58 -256 42 -223 167 14 50 24 65 62 88 45 27 107
24 155 -6z"/>
<path d="M1500 1149 c-19 -4 -39 -5 -45 -2 -5 4 -7 2 -2 -2 4 -5 -5 -21 -20
-37 -23 -24 -27 -37 -27 -85 0 -35 4 -58 12 -61 7 -2 12 -10 12 -18 0 -9 4
-13 9 -10 10 7 63 -18 56 -26 -3 -3 11 -4 30 -2 44 3 98 42 115 83 35 86 -47
180 -140 160z m73 -31 c35 -18 46 -40 47 -90 0 -42 -4 -50 -33 -72 -44 -34
-84 -33 -126 2 -28 23 -34 35 -35 71 -1 37 4 47 32 72 35 31 77 38 115 17z"/>
<path d="M4283 1131 c-23 -19 -29 -37 -15 -43 4 -1 38 -48 75 -103 103 -152
90 -140 126 -119 17 10 31 22 31 26 0 4 -24 40 -52 80 -29 41 -69 98 -88 126
-19 29 -39 52 -45 52 -5 -1 -20 -9 -32 -19z m97 -102 c33 -49 57 -95 54 -101
-4 -6 -3 -8 3 -5 6 4 16 0 23 -9 10 -12 11 -17 1 -27 -14 -14 -21 -6 -99 106
-60 87 -72 109 -66 119 11 18 26 4 84 -83z"/>
<path d="M4192 1067 c-6 -7 -32 -24 -57 -38 -26 -13 -54 -29 -63 -34 -10 -6
-36 -21 -59 -33 -41 -21 -42 -23 -31 -50 7 -15 13 -28 14 -30 1 -2 21 9 43 24
50 32 45 37 121 -103 28 -51 53 -93 56 -93 8 0 64 30 64 34 0 2 -16 33 -36 68
-21 34 -43 75 -51 90 -8 15 -18 30 -24 33 -22 14 -7 43 31 61 28 13 38 23 34
34 -4 8 -9 23 -11 33 -6 20 -17 22 -31 4z m18 -31 c0 -2 -17 -17 -37 -33 -22
-16 -39 -38 -40 -51 -2 -13 1 -21 6 -18 5 3 14 -8 21 -25 7 -17 19 -36 26 -43
25 -25 63 -116 51 -123 -6 -3 -16 1 -21 11 -6 10 -26 41 -43 69 -18 28 -33 56
-33 62 -1 5 -11 23 -24 39 -22 27 -26 28 -56 17 -56 -19 -57 -12 -5 17 28 16
65 38 84 50 19 11 38 19 43 16 4 -3 8 0 8 5 0 6 5 11 10 11 6 0 10 -2 10 -4z"/>
<path d="M1805 1000 c-17 -35 -128 -214 -143 -233 -9 -9 -13 -19 -11 -21 9 -8
71 -37 73 -34 18 26 156 269 156 275 0 7 -47 33 -60 33 -3 0 -10 -9 -15 -20z
m45 -26 c0 -8 -4 -12 -10 -9 -6 4 -7 -1 -3 -11 5 -13 3 -16 -10 -11 -9 3 -19
1 -23 -5 -4 -7 -3 -8 4 -4 22 13 12 -18 -23 -74 -19 -30 -41 -69 -50 -86 -12
-23 -22 -30 -35 -27 -17 5 -17 6 -2 34 10 16 20 29 25 29 4 0 7 7 7 16 0 21
35 65 45 56 5 -4 5 -1 1 5 -4 7 7 34 25 62 32 48 49 57 49 25z"/>
<path d="M1950 940 c0 -5 -29 -71 -65 -146 -36 -75 -64 -137 -63 -138 2 -1 28
-13 58 -28 100 -49 153 -69 161 -61 3 4 10 18 13 29 6 19 -2 25 -64 50 -38 16
-70 33 -70 37 0 8 26 66 90 199 l18 38 -31 15 c-35 17 -47 19 -47 5z m27 -78
c-8 -15 -24 -47 -36 -72 -13 -25 -27 -53 -32 -62 -23 -44 -11 -64 50 -92 32
-14 64 -26 72 -26 9 0 10 -3 2 -11 -19 -19 -186 61 -177 86 21 54 83 163 89
157 5 -4 5 -2 1 5 -4 7 1 27 10 44 14 28 18 30 26 15 6 -11 5 -25 -5 -44z"/>
<path d="M3919 914 c-29 -14 -49 -73 -49 -138 0 -24 -5 -36 -14 -36 -8 0 -16
3 -18 8 -1 4 -25 25 -52 46 -44 36 -51 38 -84 30 -35 -9 -57 -34 -30 -34 7 0
31 -17 53 -36 22 -20 59 -49 82 -65 32 -23 45 -40 59 -81 9 -29 18 -54 19 -56
1 -1 18 4 38 13 l35 15 -20 52 c-19 52 -20 56 -4 153 10 55 19 108 21 117 5
25 -6 28 -36 12z m-3 -76 c-3 -29 -9 -77 -12 -106 -4 -34 -2 -69 6 -93 10 -30
11 -42 2 -51 -8 -8 -14 -4 -22 17 -6 16 -8 35 -5 44 3 8 3 13 0 9 -3 -3 -24
11 -45 31 -22 20 -60 51 -85 69 -43 31 -57 52 -35 52 5 0 37 -20 70 -46 50
-38 63 -43 80 -34 12 6 20 21 20 35 0 31 20 125 27 125 3 0 2 -24 -1 -52z"/>
<path d="M2403 707 c-26 -34 -56 -75 -67 -91 -10 -17 -37 -53 -59 -79 -22 -26
-38 -49 -36 -52 2 -2 20 -6 40 -10 33 -6 39 -4 58 23 20 28 24 30 59 21 109
-27 108 -27 118 -66 8 -32 14 -38 44 -44 19 -4 35 -7 36 -6 1 1 -12 63 -28
137 -16 74 -31 151 -35 172 -5 32 -10 37 -44 46 l-38 10 -48 -61z m83 27 c14
-4 24 -16 28 -37 3 -18 16 -83 29 -145 13 -62 20 -115 16 -118 -5 -3 -18 15
-29 40 -12 25 -31 47 -43 51 -22 7 -22 7 2 14 24 6 37 46 19 57 -4 3 -8 23 -8
44 0 54 -30 71 -58 35 -11 -14 -24 -25 -29 -25 -5 0 -15 -17 -21 -37 -12 -40
-3 -63 27 -63 9 0 23 -5 31 -11 11 -8 5 -9 -23 -4 -21 3 -45 9 -52 12 -8 3
-28 -8 -44 -25 -20 -19 -34 -26 -43 -21 -7 5 -8 9 -3 9 6 0 15 8 20 19 27 50
89 131 101 131 8 0 13 4 12 9 -3 10 33 71 42 71 3 0 15 -3 26 -6z m-6 -93 c0
-22 5 -52 10 -67 10 -25 9 -26 -12 -19 -13 4 -35 9 -50 12 -26 5 -38 27 -20
35 4 2 18 20 31 41 29 48 41 47 41 -2z"/>
<path d="M3463 760 c-19 -8 -21 -13 -13 -32 10 -22 41 -143 62 -241 8 -35 15
-47 25 -43 8 3 50 15 94 26 128 33 130 34 118 70 -11 30 -19 36 -33 23 -7 -7
-129 -44 -132 -40 -1 1 -15 56 -31 122 -31 128 -38 136 -90 115z m66 -117 c27
-116 44 -147 74 -139 22 5 22 5 2 -10 -11 -8 -25 -12 -32 -10 -7 3 -13 0 -13
-6 0 -7 -5 -6 -15 2 -17 14 -21 35 -4 24 6 -3 3 8 -6 26 -9 17 -25 65 -35 104
-11 40 -22 81 -26 90 -4 11 -1 16 13 16 16 0 23 -16 42 -97z m176 -129 c-35
-15 -75 -18 -75 -6 0 5 17 9 37 10 21 1 39 6 41 12 2 6 9 7 15 3 7 -4 0 -12
-18 -19z"/>
<path d="M3193 710 c-13 -5 -23 -18 -23 -29 0 -11 -13 -57 -29 -103 -43 -125
-63 -190 -59 -194 2 -2 20 -1 40 2 31 6 37 11 42 39 7 36 29 45 116 45 44 0
49 -2 60 -31 13 -29 15 -31 54 -25 22 4 42 8 43 10 2 2 -11 26 -29 54 -18 28
-58 94 -88 147 -58 101 -69 108 -127 85z m110 -101 c26 -44 47 -84 47 -89 0
-4 7 -11 16 -14 9 -3 14 -12 12 -18 -3 -7 2 -19 9 -27 12 -11 12 -15 1 -22 -8
-6 -17 -3 -23 8 -18 29 -45 54 -55 48 -16 -10 -17 20 -1 45 9 13 11 21 4 17
-7 -5 -16 5 -24 28 -7 19 -17 35 -22 35 -5 0 -6 7 -3 16 4 9 2 13 -5 8 -6 -4
-15 0 -20 7 -13 19 -49 -24 -49 -58 0 -13 -5 -33 -11 -45 -6 -11 -8 -23 -4
-26 10 -11 29 28 40 83 l10 50 33 -57 c17 -32 32 -59 32 -62 0 -2 -23 -6 -51
-10 -38 -5 -49 -10 -45 -21 3 -9 -3 -19 -15 -26 -11 -6 -25 -24 -31 -40 -5
-16 -16 -29 -23 -29 -15 0 -7 35 40 175 15 44 29 86 31 93 2 6 16 12 32 12 24
0 34 -10 75 -81z m-13 -109 c0 -5 -17 -10 -37 -9 -34 1 -35 2 -13 9 36 11 50
11 50 0z"/>
<path d="M2700 596 c0 -62 -3 -134 -6 -160 l-7 -46 42 0 41 0 0 95 c0 57 4 95
10 95 6 0 10 -5 10 -10 0 -6 30 -51 67 -100 61 -81 71 -90 100 -90 l33 0 0 53
c0 28 3 100 7 158 l6 107 -37 4 c-20 2 -39 2 -41 -1 -3 -2 -5 -47 -6 -100 0
-93 -1 -95 -17 -71 -9 13 -43 59 -74 102 -53 72 -61 78 -93 78 l-35 0 0 -114z
m72 77 c10 -9 18 -21 18 -28 0 -7 9 -20 20 -30 30 -27 25 -36 -17 -33 l-38 3
-3 -47 c-2 -27 -7 -48 -11 -48 -4 0 -6 -19 -4 -42 3 -30 1 -40 -6 -33 -6 6
-10 35 -10 65 0 30 0 79 0 108 0 31 4 50 9 47 6 -4 7 6 4 25 -7 35 8 40 38 13z
m203 -57 c-3 -35 -6 -96 -6 -135 0 -61 -2 -71 -18 -71 -18 0 -62 43 -65 64 -1
6 -19 29 -39 50 -28 29 -34 42 -25 47 12 8 33 -4 33 -19 0 -4 11 -19 24 -34
19 -22 28 -25 42 -17 16 8 19 22 19 94 0 80 1 85 21 85 20 0 21 -3 14 -64z"/>
<path d="M2731 604 c0 -11 3 -14 6 -6 3 7 2 16 -1 19 -3 4 -6 -2 -5 -13z"/>
<path d="M5536 4007 c3 -10 9 -15 12 -12 3 3 0 11 -7 18 -10 9 -11 8 -5 -6z"/>
<path d="M5580 2081 c0 -6 4 -13 10 -16 6 -3 7 1 4 9 -7 18 -14 21 -14 7z"/>
<path d="M5870 5020 c0 -5 5 -10 10 -10 6 0 10 5 10 10 0 6 -4 10 -10 10 -5 0
-10 -4 -10 -10z"/>
<path d="M5965 3820 c4 -6 11 -8 16 -5 14 9 11 15 -7 15 -8 0 -12 -5 -9 -10z"/>
<path d="M260 610 c0 -5 5 -10 11 -10 5 0 7 5 4 10 -3 6 -8 10 -11 10 -2 0 -4
-4 -4 -10z"/>
<path d="M5930 500 c0 -5 5 -10 10 -10 6 0 10 5 10 10 0 6 -4 10 -10 10 -5 0
-10 -4 -10 -10z"/>
<path d="M316 185 c-3 -8 -1 -15 4 -15 6 0 10 7 10 15 0 8 -2 15 -4 15 -2 0
-6 -7 -10 -15z"/>
</g>
</svg>
